<svg width="136" height="25" viewBox="0 0 136 25" fill="none" xmlns="http://www.w3.org/2000/svg">
<rect width="136" height="25" rx="12" fill="url(#paint0_linear_10_1349)"/>
<path d="M36.85 17.114C36.47 17.114 36.082 17.082 35.686 17.018C35.294 16.958 34.922 16.868 34.57 16.748V15.68C34.818 15.764 35.074 15.834 35.338 15.89C35.602 15.946 35.862 15.988 36.118 16.016C36.374 16.044 36.62 16.058 36.856 16.058C37.548 16.058 38.054 15.934 38.374 15.686C38.694 15.438 38.854 15.08 38.854 14.612C38.854 14.212 38.734 13.906 38.494 13.694C38.254 13.478 37.836 13.294 37.24 13.142L36.7 13.004C35.94 12.808 35.368 12.512 34.984 12.116C34.6 11.716 34.408 11.19 34.408 10.538C34.408 9.75 34.686 9.132 35.242 8.684C35.798 8.232 36.628 8.006 37.732 8.006C38.096 8.006 38.45 8.03 38.794 8.078C39.138 8.122 39.448 8.186 39.724 8.27V9.338C39.428 9.246 39.114 9.178 38.782 9.134C38.454 9.086 38.122 9.062 37.786 9.062C37.29 9.062 36.888 9.118 36.58 9.23C36.272 9.342 36.046 9.504 35.902 9.716C35.758 9.928 35.686 10.18 35.686 10.472C35.686 10.852 35.794 11.148 36.01 11.36C36.23 11.572 36.616 11.752 37.168 11.9L37.708 12.038C38.264 12.178 38.72 12.36 39.076 12.584C39.436 12.804 39.702 13.074 39.874 13.394C40.046 13.714 40.132 14.092 40.132 14.528C40.132 15.072 40.002 15.538 39.742 15.926C39.486 16.31 39.112 16.604 38.62 16.808C38.132 17.012 37.542 17.114 36.85 17.114ZM43.1645 17.108C42.5325 17.108 42.0365 16.946 41.6765 16.622C41.3205 16.298 41.1425 15.856 41.1425 15.296C41.1425 14.716 41.3385 14.262 41.7305 13.934C42.1225 13.606 42.7505 13.404 43.6145 13.328L45.2525 13.166L45.3785 13.928L43.7225 14.096C43.2505 14.144 42.9105 14.258 42.7025 14.438C42.4985 14.614 42.3965 14.862 42.3965 15.182C42.3965 15.506 42.4905 15.756 42.6785 15.932C42.8705 16.104 43.1505 16.19 43.5185 16.19C43.7745 16.19 44.0305 16.138 44.2865 16.034C44.5425 15.93 44.7725 15.756 44.9765 15.512V12.776C44.9765 12.408 44.9185 12.122 44.8025 11.918C44.6865 11.714 44.5085 11.57 44.2685 11.486C44.0285 11.402 43.7225 11.36 43.3505 11.36C43.1025 11.36 42.8225 11.382 42.5105 11.426C42.1985 11.47 41.8905 11.542 41.5865 11.642V10.658C41.8785 10.562 42.2005 10.49 42.5525 10.442C42.9045 10.394 43.2345 10.37 43.5425 10.37C44.1385 10.37 44.6325 10.448 45.0245 10.604C45.4205 10.756 45.7145 11.012 45.9065 11.372C46.1025 11.732 46.2005 12.224 46.2005 12.848V17H45.1625L45.0725 16.298H45.0005C44.7925 16.566 44.5265 16.768 44.2025 16.904C43.8825 17.04 43.5365 17.108 43.1645 17.108ZM49.4624 17L47.0444 10.472H48.3704L50.3564 16.058H50.2304L52.2164 10.472H53.4644L51.0524 17H49.4624ZM57.2386 17.12C56.5186 17.12 55.9166 17.004 55.4326 16.772C54.9526 16.54 54.5926 16.176 54.3526 15.68C54.1126 15.18 53.9926 14.532 53.9926 13.736C53.9926 12.984 54.1026 12.36 54.3226 11.864C54.5466 11.364 54.8646 10.99 55.2766 10.742C55.6886 10.494 56.1806 10.37 56.7526 10.37C57.3126 10.37 57.7866 10.494 58.1746 10.742C58.5666 10.99 58.8626 11.366 59.0626 11.87C59.2666 12.37 59.3686 13.002 59.3686 13.766V14.126H54.6886V13.334H58.4266L58.1866 13.466C58.1866 12.914 58.1306 12.474 58.0186 12.146C57.9066 11.818 57.7426 11.584 57.5266 11.444C57.3106 11.3 57.0486 11.228 56.7406 11.228C56.4326 11.228 56.1666 11.298 55.9426 11.438C55.7226 11.578 55.5526 11.812 55.4326 12.14C55.3126 12.468 55.2526 12.91 55.2526 13.466V13.934C55.2526 14.474 55.3266 14.906 55.4746 15.23C55.6226 15.55 55.8546 15.78 56.1706 15.92C56.4866 16.06 56.8966 16.13 57.4006 16.13C57.6486 16.13 57.9086 16.11 58.1806 16.07C58.4526 16.026 58.7366 15.964 59.0326 15.884V16.868C58.7086 16.956 58.4006 17.02 58.1086 17.06C57.8166 17.1 57.5266 17.12 57.2386 17.12ZM63.7058 17V8.12H64.9778V17H63.7058ZM66.7679 17V10.472H67.8119L67.9019 11.186H67.9739C68.2299 10.922 68.5299 10.72 68.8739 10.58C69.2219 10.44 69.5899 10.37 69.9779 10.37C70.3939 10.37 70.7619 10.448 71.0819 10.604C71.4059 10.76 71.6599 11.014 71.8439 11.366C72.0279 11.714 72.1199 12.18 72.1199 12.764V17H70.8659V12.83C70.8659 12.318 70.7559 11.964 70.5359 11.768C70.3159 11.568 70.0159 11.468 69.6359 11.468C69.4599 11.468 69.2739 11.494 69.0779 11.546C68.8819 11.598 68.6919 11.68 68.5079 11.792C68.3239 11.904 68.1619 12.052 68.0219 12.236V17H66.7679ZM76.4585 17.12C75.8065 17.12 75.2525 17 74.7965 16.76C74.3445 16.52 74.0005 16.152 73.7645 15.656C73.5285 15.16 73.4105 14.522 73.4105 13.742C73.4105 12.958 73.5365 12.318 73.7885 11.822C74.0445 11.326 74.4165 10.96 74.9045 10.724C75.3925 10.488 75.9865 10.37 76.6865 10.37C76.9265 10.37 77.1625 10.384 77.3945 10.412C77.6265 10.44 77.8485 10.48 78.0605 10.532V11.564C77.8485 11.512 77.6405 11.474 77.4365 11.45C77.2365 11.422 77.0365 11.408 76.8365 11.408C76.3565 11.408 75.9585 11.484 75.6425 11.636C75.3265 11.788 75.0905 12.034 74.9345 12.374C74.7825 12.71 74.7065 13.16 74.7065 13.724C74.7065 14.3 74.7785 14.76 74.9225 15.104C75.0705 15.448 75.2885 15.696 75.5765 15.848C75.8645 16 76.2205 16.076 76.6445 16.076C76.8525 16.076 77.0685 16.056 77.2925 16.016C77.5205 15.976 77.7765 15.914 78.0605 15.83V16.856C77.8125 16.94 77.5525 17.004 77.2805 17.048C77.0085 17.096 76.7345 17.12 76.4585 17.12ZM81.6583 17.12C81.0703 17.12 80.5583 17 80.1223 16.76C79.6903 16.52 79.3543 16.152 79.1143 15.656C78.8743 15.16 78.7543 14.524 78.7543 13.748C78.7543 12.968 78.8723 12.33 79.1083 11.834C79.3443 11.338 79.6783 10.97 80.1103 10.73C80.5463 10.49 81.0623 10.37 81.6583 10.37C82.2543 10.37 82.7683 10.49 83.2003 10.73C83.6363 10.97 83.9723 11.338 84.2083 11.834C84.4443 12.33 84.5623 12.966 84.5623 13.742C84.5623 14.514 84.4423 15.15 84.2023 15.65C83.9663 16.15 83.6303 16.52 83.1943 16.76C82.7583 17 82.2463 17.12 81.6583 17.12ZM81.6583 16.13C81.9943 16.13 82.2843 16.058 82.5283 15.914C82.7723 15.766 82.9603 15.52 83.0923 15.176C83.2243 14.828 83.2903 14.354 83.2903 13.754C83.2903 13.146 83.2243 12.668 83.0923 12.32C82.9603 11.972 82.7723 11.726 82.5283 11.582C82.2843 11.434 81.9943 11.36 81.6583 11.36C81.3223 11.36 81.0323 11.432 80.7883 11.576C80.5443 11.72 80.3563 11.966 80.2243 12.314C80.0923 12.658 80.0263 13.13 80.0263 13.73C80.0263 14.338 80.0903 14.816 80.2183 15.164C80.3503 15.512 80.5383 15.76 80.7823 15.908C81.0303 16.056 81.3223 16.13 81.6583 16.13ZM85.928 17V10.472H86.972L87.062 11.192H87.134C87.378 10.92 87.658 10.716 87.974 10.58C88.294 10.44 88.636 10.37 89 10.37C89.372 10.37 89.704 10.448 89.996 10.604C90.288 10.756 90.518 11.004 90.686 11.348C90.854 11.692 90.938 12.152 90.938 12.728V17H89.708V12.824C89.708 12.312 89.608 11.958 89.408 11.762C89.212 11.566 88.95 11.468 88.622 11.468C88.458 11.468 88.288 11.496 88.112 11.552C87.936 11.604 87.768 11.688 87.608 11.804C87.448 11.92 87.306 12.072 87.182 12.26V17H85.928ZM93.422 17V12.824C93.422 12.312 93.318 11.958 93.11 11.762C92.902 11.566 92.634 11.468 92.306 11.468C92.138 11.468 91.96 11.496 91.772 11.552C91.588 11.608 91.408 11.702 91.232 11.834C91.06 11.966 90.912 12.144 90.788 12.368L90.5 11.45C90.812 11.054 91.156 10.776 91.532 10.616C91.912 10.452 92.282 10.37 92.642 10.37C93.034 10.37 93.382 10.448 93.686 10.604C93.994 10.76 94.234 11.014 94.406 11.366C94.582 11.714 94.67 12.18 94.67 12.764V17H93.422ZM99.2151 17.12C98.4951 17.12 97.8931 17.004 97.4091 16.772C96.9291 16.54 96.5691 16.176 96.3291 15.68C96.0891 15.18 95.9691 14.532 95.9691 13.736C95.9691 12.984 96.0791 12.36 96.2991 11.864C96.5231 11.364 96.8411 10.99 97.2531 10.742C97.6651 10.494 98.1571 10.37 98.7291 10.37C99.2891 10.37 99.7631 10.494 100.151 10.742C100.543 10.99 100.839 11.366 101.039 11.87C101.243 12.37 101.345 13.002 101.345 13.766V14.126H96.6651V13.334H100.403L100.163 13.466C100.163 12.914 100.107 12.474 99.9951 12.146C99.8831 11.818 99.7191 11.584 99.5031 11.444C99.2871 11.3 99.0251 11.228 98.7171 11.228C98.4091 11.228 98.1431 11.298 97.9191 11.438C97.6991 11.578 97.5291 11.812 97.4091 12.14C97.2891 12.468 97.2291 12.91 97.2291 13.466V13.934C97.2291 14.474 97.3031 14.906 97.4511 15.23C97.5991 15.55 97.8311 15.78 98.1471 15.92C98.4631 16.06 98.8731 16.13 99.3771 16.13C99.6251 16.13 99.8851 16.11 100.157 16.07C100.429 16.026 100.713 15.964 101.009 15.884V16.868C100.685 16.956 100.377 17.02 100.085 17.06C99.7931 17.1 99.5031 17.12 99.2151 17.12Z" fill="white"/>
<defs>
<linearGradient id="paint0_linear_10_1349" x1="68" y1="0" x2="68" y2="25" gradientUnits="userSpaceOnUse">
<stop stop-color="#37297A"/>
<stop offset="1" stop-color="#2D2164"/>
</linearGradient>
</defs>
</svg>
