<svg width="203" height="18" viewBox="0 0 203 18" fill="none" xmlns="http://www.w3.org/2000/svg">
<path d="M1.52606 5.10339H14.5261" stroke="white" stroke-width="2" stroke-linecap="round"/>
<path d="M1.52606 11.1034H10.5261" stroke="white" stroke-width="2" stroke-linecap="round"/>
<g clip-path="url(#clip0_10_1301)">
<path d="M187.379 6.17762C187.379 5.55439 187.534 4.94091 187.83 4.39237C188.126 3.84383 188.553 3.37742 189.074 3.0351C189.595 2.69278 190.193 2.48528 190.814 2.43126C191.435 2.37725 192.059 2.47841 192.631 2.72566C193.203 2.9729 193.705 3.35848 194.091 3.84769C194.477 4.33691 194.736 4.91443 194.843 5.52831C194.951 6.14219 194.904 6.77318 194.707 7.36452C194.51 7.95585 194.17 8.489 193.716 8.916C194.572 9.33139 195.315 9.94707 195.882 10.7108C196.45 11.4746 196.825 12.3639 196.975 13.3034C196.992 13.408 196.988 13.5148 196.963 13.6177C196.938 13.7206 196.893 13.8177 196.831 13.9033C196.769 13.9889 196.691 14.0615 196.6 14.1168C196.51 14.1721 196.41 14.2091 196.305 14.2257C196.201 14.2423 196.094 14.2381 195.991 14.2134C195.888 14.1887 195.791 14.144 195.705 14.0818C195.62 14.0196 195.547 13.9412 195.492 13.8509C195.437 13.7607 195.4 13.6604 195.383 13.5559C195.222 12.5464 194.706 11.6274 193.928 10.9639C193.151 10.3005 192.162 9.93602 191.14 9.93602C190.117 9.93602 189.128 10.3005 188.351 10.9639C187.573 11.6274 187.057 12.5464 186.896 13.5559C186.879 13.6604 186.842 13.7607 186.787 13.8509C186.732 13.9411 186.659 14.0195 186.573 14.0817C186.488 14.1438 186.39 14.1885 186.288 14.2131C186.185 14.2377 186.078 14.2418 185.973 14.2252C185.869 14.2085 185.768 14.1715 185.678 14.1161C185.588 14.0607 185.51 13.9881 185.447 13.9024C185.385 13.8167 185.341 13.7196 185.316 13.6166C185.291 13.5137 185.287 13.4069 185.304 13.3024C185.455 12.3632 185.83 11.4743 186.397 10.7109C186.964 9.94751 187.708 9.33218 188.563 8.91708C188.189 8.56571 187.891 8.1413 187.687 7.6701C187.484 7.1989 187.379 6.69093 187.379 6.17762ZM197.048 4.56617C197.672 4.56661 198.283 4.74822 198.806 5.08898C199.329 5.42973 199.742 5.91496 199.994 6.48578C200.247 7.05659 200.328 7.68844 200.229 8.30462C200.129 8.9208 199.853 9.49482 199.433 9.957C200.087 10.2816 200.668 10.7359 201.141 11.2922C201.614 11.8485 201.968 12.4951 202.183 13.1928C202.226 13.3282 202.232 13.4725 202.201 13.611C202.169 13.7495 202.102 13.8773 202.006 13.9814C201.909 14.0855 201.787 14.1621 201.651 14.2036C201.515 14.2451 201.371 14.25 201.233 14.2177C201.094 14.1855 200.967 14.1175 200.864 14.0206C200.76 13.9237 200.684 13.8012 200.643 13.6655C200.45 13.0426 200.099 12.4804 199.624 12.0337C199.15 11.587 198.567 11.2713 197.933 11.1172C197.757 11.0748 197.601 10.9743 197.489 10.832C197.377 10.6898 197.317 10.514 197.317 10.333V9.95485C197.317 9.80484 197.358 9.65779 197.437 9.53024C197.516 9.40269 197.629 9.29972 197.764 9.23292C198.089 9.07151 198.351 8.80473 198.506 8.47591C198.661 8.1471 198.7 7.77555 198.617 7.42164C198.534 7.06772 198.334 6.75223 198.049 6.52639C197.764 6.30055 197.412 6.17764 197.048 6.17762C196.834 6.17762 196.63 6.09273 196.478 5.94163C196.327 5.79052 196.242 5.58559 196.242 5.3719C196.242 5.1582 196.327 4.95327 196.478 4.80216C196.63 4.65106 196.834 4.56617 197.048 4.56617ZM191.14 4.02902C190.853 4.02255 190.569 4.07331 190.303 4.17832C190.036 4.28333 189.794 4.44047 189.589 4.64052C189.384 4.84057 189.222 5.07949 189.111 5.34326C189 5.60703 188.942 5.89033 188.942 6.17653C188.942 6.46273 188.999 6.74606 189.11 7.00989C189.221 7.27371 189.384 7.51272 189.588 7.71287C189.793 7.91302 190.035 8.07028 190.302 8.17542C190.568 8.28056 190.852 8.33147 191.138 8.32514C191.7 8.31272 192.234 8.08103 192.627 7.67966C193.019 7.27829 193.239 6.73913 193.24 6.17761C193.24 5.61608 193.02 5.07682 192.628 4.67525C192.235 4.27368 191.701 4.04172 191.14 4.02902Z" fill="white"/>
</g>
<defs>
<clipPath id="clip0_10_1301">
<rect width="17.1888" height="17.1888" fill="white" transform="translate(185.231 0.269043)"/>
</clipPath>
</defs>
</svg>
