<svg width="193" height="22" viewBox="0 0 193 22" fill="none" xmlns="http://www.w3.org/2000/svg">
<path d="M7.78837 17.1064C9.72761 17.1064 10.8795 15.5899 10.8795 13.0219C10.8795 12.0549 10.6946 11.2412 10.3406 10.6124C9.828 9.63485 8.94557 9.10645 7.83065 9.10645C6.17146 9.10645 4.99841 10.2214 4.99841 11.7854C4.99841 13.2544 6.05522 14.3218 7.50832 14.3218C8.40132 14.3218 9.12523 13.9043 9.48454 13.1804H9.50039C9.50039 13.1804 9.52153 13.1804 9.52681 13.1804C9.53738 13.1804 9.57437 13.1804 9.57437 13.1804C9.57437 14.9241 8.91387 15.9651 7.79894 15.9651C7.14372 15.9651 6.63646 15.6058 6.46209 15.0298H5.10409C5.33131 16.2821 6.39339 17.1064 7.78837 17.1064ZM7.83593 13.2385C6.95878 13.2385 6.33527 12.615 6.33527 11.7432C6.33527 10.8924 6.99049 10.2425 7.84121 10.2425C8.69194 10.2425 9.34716 10.903 9.34716 11.7643C9.34716 12.615 8.70779 13.2385 7.83593 13.2385Z" fill="white"/>
<path d="M13.1096 17.0325C13.6116 17.0325 13.955 16.6732 13.955 16.1976C13.955 15.7167 13.6116 15.3627 13.1096 15.3627C12.6129 15.3627 12.2641 15.7167 12.2641 16.1976C12.2641 16.6732 12.6129 17.0325 13.1096 17.0325ZM13.1096 13.0695C13.6116 13.0695 13.955 12.7154 13.955 12.2399C13.955 11.759 13.6116 11.405 13.1096 11.405C12.6129 11.405 12.2641 11.759 12.2641 12.2399C12.2641 12.7154 12.6129 13.0695 13.1096 13.0695Z" fill="white"/>
<path d="M18.9011 16.9215H20.2062V15.5001H21.2366V14.3482H20.2062V9.29667H18.2829C16.9354 11.3257 15.8628 13.0219 15.1759 14.2848V15.5001H18.9011V16.9215ZM16.4387 14.3006C17.3264 12.7366 18.119 11.4843 18.8482 10.4063H18.9222V14.3799H16.4387V14.3006Z" fill="white"/>
<path d="M24.143 16.9215H25.5063V9.29667H24.1483L22.1562 10.6917V12.0021L24.0532 10.6705H24.143V16.9215Z" fill="white"/>
<path opacity="0.35" d="M176.094 9.17642C176.094 8.25199 176.844 7.5026 177.768 7.5026H189.174C190.098 7.5026 190.848 8.25199 190.848 9.17642V13.0544C190.848 13.9788 190.098 14.7282 189.174 14.7282H177.768C176.844 14.7282 176.094 13.9788 176.094 13.0544V9.17642Z" fill="white" stroke="white" stroke-width="0.772531"/>
<path opacity="0.4" d="M191.94 9.70398V12.5268C192.508 12.2878 192.877 11.7316 192.877 11.1154C192.877 10.4992 192.508 9.94306 191.94 9.70398Z" fill="white"/>
<path d="M177.12 9.55787C177.12 8.989 177.581 8.52783 178.15 8.52783H188.793C189.362 8.52783 189.823 8.989 189.823 9.55787V12.6731C189.823 13.2419 189.362 13.7031 188.793 13.7031H178.15C177.581 13.7031 177.12 13.2419 177.12 12.673V9.55787Z" fill="white"/>
<path fill-rule="evenodd" clip-rule="evenodd" d="M166.767 8.72165C168.331 8.72172 169.835 9.32259 170.968 10.4001C171.053 10.4833 171.19 10.4822 171.274 10.3977L172.09 9.57439C172.132 9.53154 172.156 9.47349 172.156 9.4131C172.155 9.3527 172.131 9.29494 172.088 9.25259C169.113 6.40181 164.42 6.40181 161.446 9.25259C161.402 9.29491 161.378 9.35265 161.378 9.41305C161.377 9.47344 161.401 9.53151 161.443 9.57439L162.259 10.3977C162.343 10.4823 162.48 10.4834 162.565 10.4001C163.699 9.32252 165.203 8.72165 166.767 8.72165ZM166.767 11.4004C167.626 11.4003 168.454 11.7197 169.091 12.2964C169.177 12.3782 169.313 12.3765 169.397 12.2924L170.212 11.4691C170.255 11.4259 170.279 11.3673 170.278 11.3064C170.277 11.2455 170.252 11.1874 170.209 11.1451C168.269 9.34105 165.266 9.34105 163.326 11.1451C163.283 11.1874 163.258 11.2456 163.257 11.3065C163.256 11.3674 163.28 11.4259 163.323 11.4691L164.138 12.2924C164.222 12.3765 164.358 12.3782 164.444 12.2964C165.08 11.7201 165.908 11.4007 166.767 11.4004ZM168.399 13.2027C168.4 13.2637 168.376 13.3226 168.332 13.3653L166.923 14.7878C166.882 14.8296 166.825 14.8532 166.767 14.8532C166.708 14.8532 166.651 14.8296 166.61 14.7878L165.2 13.3653C165.157 13.3225 165.133 13.2636 165.134 13.2026C165.135 13.1415 165.162 13.0837 165.207 13.0428C166.107 12.2814 167.426 12.2814 168.326 13.0428C168.371 13.0838 168.398 13.1416 168.399 13.2027Z" fill="white"/>
<path d="M149.705 0.817261H45.4981V3.20702C45.4981 13.3976 53.7592 21.6586 63.9497 21.6586H131.253C141.444 21.6586 149.705 13.3976 149.705 3.20702V0.817261Z" fill="#241C4C"/>
<g opacity="0.15">
<path d="M78.7141 3.42249C77.635 3.42249 76.7603 4.29727 76.7603 5.37636C76.7603 6.45546 77.635 7.33024 78.7141 7.33024H106.068C107.148 7.33024 108.022 6.45546 108.022 5.37636C108.022 4.29727 107.148 3.42249 106.068 3.42249H78.7141Z" fill="white"/>
<path d="M116.489 3.42249C115.41 3.42249 114.535 4.29727 114.535 5.37636C114.535 6.45546 115.41 7.33024 116.489 7.33024C117.568 7.33024 118.443 6.45546 118.443 5.37636C118.443 4.29727 117.568 3.42249 116.489 3.42249Z" fill="white"/>
</g>
</svg>
