<svg width="110" height="16" viewBox="0 0 110 16" fill="none" xmlns="http://www.w3.org/2000/svg">
<path d="M4.32 15V4.11H0.117V1.68H11.448V4.11H7.254V15H4.32ZM15.7012 15.189C14.7172 15.189 13.8652 15.003 13.1452 14.631C12.4312 14.253 11.8792 13.689 11.4892 12.939C11.0992 12.183 10.9042 11.238 10.9042 10.104C10.9042 8.958 11.0932 8.007 11.4712 7.251C11.8552 6.495 12.4042 5.931 13.1182 5.559C13.8382 5.187 14.6992 5.001 15.7012 5.001C16.7032 5.001 17.5612 5.19 18.2752 5.568C18.9952 5.94 19.5442 6.504 19.9222 7.26C20.3062 8.01 20.4982 8.952 20.4982 10.086C20.4982 11.226 20.3032 12.174 19.9132 12.93C19.5232 13.686 18.9682 14.253 18.2482 14.631C17.5342 15.003 16.6852 15.189 15.7012 15.189ZM15.7012 13.011C16.1032 13.011 16.4452 12.924 16.7272 12.75C17.0152 12.576 17.2342 12.279 17.3842 11.859C17.5342 11.433 17.6092 10.851 17.6092 10.113C17.6092 9.357 17.5342 8.766 17.3842 8.34C17.2342 7.914 17.0152 7.614 16.7272 7.44C16.4452 7.26 16.1032 7.17 15.7012 7.17C15.2992 7.17 14.9542 7.257 14.6662 7.431C14.3842 7.605 14.1682 7.905 14.0182 8.331C13.8682 8.751 13.7932 9.333 13.7932 10.077C13.7932 10.833 13.8682 11.424 14.0182 11.85C14.1682 12.276 14.3842 12.576 14.6662 12.75C14.9542 12.924 15.2992 13.011 15.7012 13.011ZM26.2665 15.18C25.0785 15.18 24.1635 14.886 23.5215 14.298C22.8855 13.704 22.5675 12.765 22.5675 11.481V5.154L23.0895 1.68H25.4295V11.031C25.4295 11.709 25.5555 12.177 25.8075 12.435C26.0655 12.693 26.4795 12.822 27.0495 12.822C27.2055 12.822 27.3645 12.813 27.5265 12.795C27.6945 12.771 27.8805 12.741 28.0845 12.705V14.973C27.8265 15.027 27.5355 15.075 27.2115 15.117C26.8935 15.159 26.5785 15.18 26.2665 15.18ZM20.9655 7.413V5.154H28.0215V7.413H20.9655ZM32.1683 15.18C31.1603 15.18 30.3743 14.919 29.8103 14.397C29.2523 13.869 28.9733 13.182 28.9733 12.336C28.9733 11.406 29.2943 10.68 29.9363 10.158C30.5843 9.636 31.6283 9.327 33.0683 9.231L35.1383 9.06L35.4443 10.644L33.3563 10.815C32.8043 10.857 32.4053 10.983 32.1593 11.193C31.9193 11.403 31.7993 11.691 31.7993 12.057C31.7993 12.417 31.9103 12.696 32.1323 12.894C32.3543 13.086 32.6783 13.182 33.1043 13.182C33.3683 13.182 33.6383 13.137 33.9143 13.047C34.1903 12.951 34.4423 12.789 34.6703 12.561V8.961C34.6703 8.511 34.5953 8.157 34.4453 7.899C34.3013 7.641 34.0643 7.458 33.7343 7.35C33.4103 7.236 32.9753 7.179 32.4293 7.179C32.0513 7.179 31.6223 7.212 31.1423 7.278C30.6623 7.338 30.2033 7.437 29.7653 7.575V5.415C30.2453 5.277 30.7703 5.175 31.3403 5.109C31.9163 5.037 32.4503 5.001 32.9423 5.001C33.9863 5.001 34.8413 5.13 35.5073 5.388C36.1793 5.646 36.6743 6.078 36.9923 6.684C37.3103 7.284 37.4693 8.103 37.4693 9.141V15H35.1113L34.9133 14.019H34.7783C34.4843 14.421 34.1093 14.715 33.6533 14.901C33.1973 15.087 32.7023 15.18 32.1683 15.18ZM39.5319 15V0.455999H42.3939V15H39.5319ZM49.2029 15V1.68H52.1279V15H49.2029ZM54.403 15V5.154H56.77L56.959 6.153H57.094C57.46 5.781 57.889 5.496 58.381 5.298C58.873 5.1 59.407 5.001 59.983 5.001C60.631 5.001 61.207 5.13 61.711 5.388C62.221 5.64 62.62 6.051 62.908 6.621C63.196 7.185 63.34 7.932 63.34 8.862V15H60.469V9.042C60.469 8.448 60.346 8.037 60.1 7.809C59.854 7.581 59.515 7.467 59.083 7.467C58.867 7.467 58.648 7.497 58.426 7.557C58.21 7.611 58 7.698 57.796 7.818C57.598 7.938 57.421 8.088 57.265 8.268V15H54.403ZM70.0689 15.189C68.9709 15.189 68.0409 15.003 67.2789 14.631C66.5229 14.259 65.9469 13.698 65.5509 12.948C65.1549 12.192 64.9569 11.241 64.9569 10.095C64.9569 8.937 65.1669 7.983 65.5869 7.233C66.0129 6.477 66.6279 5.916 67.4319 5.55C68.2419 5.184 69.2199 5.001 70.3659 5.001C70.7619 5.001 71.1429 5.019 71.5089 5.055C71.8809 5.091 72.2319 5.148 72.5619 5.226V7.494C72.2499 7.434 71.9469 7.389 71.6529 7.359C71.3589 7.329 71.0619 7.314 70.7619 7.314C70.1019 7.314 69.5619 7.407 69.1419 7.593C68.7219 7.779 68.4129 8.076 68.2149 8.484C68.0169 8.886 67.9179 9.414 67.9179 10.068C67.9179 10.746 68.0139 11.292 68.2059 11.706C68.4039 12.114 68.6949 12.411 69.0789 12.597C69.4629 12.783 69.9429 12.876 70.5189 12.876C70.8309 12.876 71.1459 12.849 71.4639 12.795C71.7819 12.741 72.1479 12.657 72.5619 12.543V14.811C72.2019 14.931 71.8089 15.024 71.3829 15.09C70.9569 15.156 70.5189 15.189 70.0689 15.189ZM78.2969 15.189C77.3129 15.189 76.4609 15.003 75.7409 14.631C75.0269 14.253 74.4749 13.689 74.0849 12.939C73.6949 12.183 73.4999 11.238 73.4999 10.104C73.4999 8.958 73.6889 8.007 74.0669 7.251C74.4509 6.495 74.9999 5.931 75.7139 5.559C76.4339 5.187 77.2949 5.001 78.2969 5.001C79.2989 5.001 80.1569 5.19 80.8709 5.568C81.5909 5.94 82.1399 6.504 82.5179 7.26C82.9019 8.01 83.0939 8.952 83.0939 10.086C83.0939 11.226 82.8989 12.174 82.5089 12.93C82.1189 13.686 81.5639 14.253 80.8439 14.631C80.1299 15.003 79.2809 15.189 78.2969 15.189ZM78.2969 13.011C78.6989 13.011 79.0409 12.924 79.3229 12.75C79.6109 12.576 79.8299 12.279 79.9799 11.859C80.1299 11.433 80.2049 10.851 80.2049 10.113C80.2049 9.357 80.1299 8.766 79.9799 8.34C79.8299 7.914 79.6109 7.614 79.3229 7.44C79.0409 7.26 78.6989 7.17 78.2969 7.17C77.8949 7.17 77.5499 7.257 77.2619 7.431C76.9799 7.605 76.7639 7.905 76.6139 8.331C76.4639 8.751 76.3889 9.333 76.3889 10.077C76.3889 10.833 76.4639 11.424 76.6139 11.85C76.7639 12.276 76.9799 12.576 77.2619 12.75C77.5499 12.924 77.8949 13.011 78.2969 13.011ZM84.778 15V5.154H87.145L87.334 6.162H87.469C87.817 5.778 88.222 5.49 88.684 5.298C89.152 5.1 89.668 5.001 90.232 5.001C90.814 5.001 91.336 5.127 91.798 5.379C92.266 5.625 92.632 6.027 92.896 6.585C93.166 7.137 93.301 7.869 93.301 8.781V15H90.493V9.024C90.493 8.436 90.382 8.031 90.16 7.809C89.944 7.581 89.644 7.467 89.26 7.467C89.068 7.467 88.87 7.497 88.666 7.557C88.468 7.617 88.279 7.707 88.099 7.827C87.925 7.947 87.772 8.1 87.64 8.286V15H84.778ZM96.091 15V9.024C96.091 8.436 95.971 8.031 95.731 7.809C95.491 7.581 95.182 7.467 94.804 7.467C94.594 7.467 94.384 7.5 94.174 7.566C93.97 7.626 93.775 7.722 93.589 7.854C93.403 7.986 93.241 8.157 93.103 8.367L92.536 6.504C92.974 5.97 93.469 5.586 94.021 5.352C94.573 5.118 95.128 5.001 95.686 5.001C96.316 5.001 96.877 5.127 97.369 5.379C97.861 5.631 98.248 6.042 98.53 6.612C98.812 7.182 98.953 7.935 98.953 8.871V15H96.091ZM105.979 15.189C104.743 15.189 103.726 15.012 102.928 14.658C102.13 14.304 101.536 13.749 101.146 12.993C100.762 12.237 100.57 11.262 100.57 10.068C100.57 8.982 100.747 8.061 101.101 7.305C101.461 6.549 101.98 5.976 102.658 5.586C103.342 5.196 104.17 5.001 105.142 5.001C106.072 5.001 106.855 5.199 107.491 5.595C108.127 5.985 108.607 6.564 108.931 7.332C109.255 8.1 109.417 9.042 109.417 10.158V10.905H102.208V9.258H107.203L106.744 9.429C106.744 8.781 106.684 8.265 106.564 7.881C106.444 7.497 106.261 7.224 106.015 7.062C105.775 6.9 105.475 6.819 105.115 6.819C104.749 6.819 104.44 6.9 104.188 7.062C103.942 7.224 103.753 7.497 103.621 7.881C103.495 8.259 103.432 8.772 103.432 9.42V10.572C103.432 11.178 103.519 11.661 103.693 12.021C103.873 12.375 104.176 12.63 104.602 12.786C105.034 12.942 105.628 13.02 106.384 13.02C106.768 13.02 107.17 12.993 107.59 12.939C108.016 12.879 108.442 12.801 108.868 12.705V14.856C108.346 14.976 107.848 15.06 107.374 15.108C106.906 15.162 106.441 15.189 105.979 15.189Z" fill="white"/>
</svg>
