<svg width="1440.000000" height="224.458588" viewBox="0 0 1440 224.459" fill="none" xmlns="http://www.w3.org/2000/svg" xmlns:xlink="http://www.w3.org/1999/xlink">
	<desc>
			Created with Pixso.
	</desc>
	<defs/>
	<path id="Vector 2" d="M0 151.45C39 157.95 103.5 170.74 170.5 170.74C221.02 170.74 339.5 159.95 443.5 130.95C547.5 101.95 704 52.24 737 45.45C770 38.67 939.5 8.95 1061.5 41.95C1183.5 74.95 1277.5 106.45 1350 160.95C1408 204.55 1433.17 220.79 1440 224.45L1440 177.95C1390.5 138.95 1270.6 59.05 1175 35.45C1055.5 5.95 977 -7.76 838 4.45C699 16.67 615.5 49.45 552 72.45C488.5 95.45 380.5 130.95 303.5 138.45C226.5 145.95 182 155.45 117 146.95C52 138.45 15.5 130.24 0 126.24L0 151.45Z" fill="#6331B6" fill-opacity="1.000000" fill-rule="evenodd"/>
</svg>
