<svg width="187" height="19" viewBox="0 0 187 19" fill="none" xmlns="http://www.w3.org/2000/svg">
<rect width="91" height="19" rx="9.5" fill="#6C26B1"/>
<path d="M21.875 13.095C21.365 13.095 20.9033 13.0283 20.49 12.895C20.08 12.7583 19.7283 12.5417 19.435 12.245C19.1417 11.9483 18.9167 11.5583 18.76 11.075C18.6033 10.5917 18.525 10.005 18.525 9.315C18.525 8.42167 18.6617 7.695 18.935 7.135C19.2083 6.575 19.6 6.16333 20.11 5.9C20.6233 5.63667 21.2383 5.505 21.955 5.505C22.2417 5.505 22.515 5.52333 22.775 5.56C23.0383 5.59667 23.2983 5.65 23.555 5.72V6.43C23.295 6.35 23.035 6.29333 22.775 6.26C22.5183 6.22667 22.255 6.21 21.985 6.21C21.425 6.21 20.95 6.31 20.56 6.51C20.1733 6.70667 19.88 7.03167 19.68 7.485C19.48 7.935 19.38 8.53833 19.38 9.295C19.38 10.075 19.4817 10.6917 19.685 11.145C19.8883 11.595 20.18 11.915 20.56 12.105C20.9433 12.295 21.4017 12.39 21.935 12.39C22.2083 12.39 22.4733 12.3683 22.73 12.325C22.9867 12.2817 23.2617 12.2117 23.555 12.115V12.82C23.3083 12.9067 23.0433 12.9733 22.76 13.02C22.48 13.07 22.185 13.095 21.875 13.095ZM24.5948 13V4.92H25.3948V8.18H25.4398C25.6598 7.95 25.9132 7.77833 26.1998 7.665C26.4865 7.54833 26.7915 7.49 27.1148 7.49C27.4448 7.49 27.7382 7.55333 27.9948 7.68C28.2548 7.80333 28.4582 8.005 28.6048 8.285C28.7515 8.565 28.8248 8.94 28.8248 9.41V13H28.0298V9.445C28.0298 8.97833 27.9248 8.65667 27.7148 8.48C27.5082 8.3 27.2332 8.21 26.8898 8.21C26.7232 8.21 26.5498 8.235 26.3698 8.285C26.1898 8.33167 26.0148 8.40833 25.8448 8.515C25.6748 8.61833 25.5248 8.75667 25.3948 8.93V13H24.5948ZM31.6234 13.09C31.1134 13.09 30.7118 12.9583 30.4184 12.695C30.1284 12.4317 29.9834 12.07 29.9834 11.61C29.9834 11.1367 30.1384 10.7683 30.4484 10.505C30.7618 10.2383 31.2634 10.0717 31.9534 10.005L33.4084 9.85L33.4834 10.38L32.0034 10.54C31.5734 10.5833 31.2634 10.6883 31.0734 10.855C30.8868 11.0183 30.7934 11.245 30.7934 11.535C30.7934 11.8383 30.8801 12.07 31.0534 12.23C31.2268 12.39 31.4851 12.47 31.8284 12.47C32.0651 12.47 32.3034 12.42 32.5434 12.32C32.7834 12.2167 32.9984 12.045 33.1884 11.805V9.41C33.1884 9.07667 33.1368 8.82 33.0334 8.64C32.9301 8.45667 32.7751 8.32833 32.5684 8.255C32.3618 8.18167 32.1018 8.145 31.7884 8.145C31.5851 8.145 31.3534 8.16333 31.0934 8.2C30.8368 8.23667 30.5801 8.29833 30.3234 8.385V7.73C30.5568 7.65333 30.8134 7.595 31.0934 7.555C31.3768 7.51167 31.6434 7.49 31.8934 7.49C32.3534 7.49 32.7368 7.55 33.0434 7.67C33.3534 7.79 33.5851 7.99333 33.7384 8.28C33.8951 8.56333 33.9734 8.95167 33.9734 9.445V13H33.3034L33.2434 12.395H33.1934C33.0168 12.6183 32.7901 12.79 32.5134 12.91C32.2401 13.03 31.9434 13.09 31.6234 13.09ZM35.4249 13V7.575H36.0999L36.1549 8.185H36.2099C36.4299 7.96167 36.6866 7.79 36.9799 7.67C37.2733 7.55 37.5849 7.49 37.9149 7.49C38.2549 7.49 38.5549 7.55333 38.8149 7.68C39.0783 7.80333 39.2833 8.00667 39.4299 8.29C39.5799 8.57 39.6549 8.945 39.6549 9.415V13H38.8599V9.45C38.8599 8.98333 38.7566 8.66 38.5499 8.48C38.3466 8.29667 38.0699 8.205 37.7199 8.205C37.5599 8.205 37.3899 8.22833 37.2099 8.275C37.0299 8.32167 36.8533 8.39833 36.6799 8.505C36.5099 8.61167 36.3583 8.75333 36.2249 8.93V13H35.4249ZM42.7685 15.3C42.5185 15.3 42.2502 15.2783 41.9635 15.235C41.6802 15.195 41.4152 15.135 41.1685 15.055V14.385C41.4518 14.4717 41.7218 14.535 41.9785 14.575C42.2385 14.6183 42.4868 14.64 42.7235 14.64C43.3102 14.64 43.7435 14.5133 44.0235 14.26C44.3035 14.01 44.4435 13.575 44.4435 12.955V12.425H44.3985C44.2352 12.615 44.0252 12.77 43.7685 12.89C43.5152 13.01 43.2252 13.07 42.8985 13.07C42.5218 13.07 42.1768 12.9833 41.8635 12.81C41.5502 12.6333 41.2985 12.35 41.1085 11.96C40.9185 11.5667 40.8235 11.045 40.8235 10.395C40.8235 9.42167 41.0552 8.695 41.5185 8.215C41.9852 7.73167 42.6702 7.49 43.5735 7.49C43.7602 7.49 43.9502 7.5 44.1435 7.52C44.3402 7.54 44.5318 7.56833 44.7185 7.605C44.9052 7.64167 45.0802 7.685 45.2435 7.735V12.835C45.2435 13.715 45.0368 14.345 44.6235 14.725C44.2102 15.1083 43.5918 15.3 42.7685 15.3ZM43.1335 12.385C43.3768 12.385 43.6152 12.3333 43.8485 12.23C44.0852 12.1267 44.2835 11.9683 44.4435 11.755V8.255C44.3235 8.225 44.1818 8.2 44.0185 8.18C43.8552 8.15667 43.6852 8.145 43.5085 8.145C42.9018 8.145 42.4385 8.315 42.1185 8.655C41.7985 8.99167 41.6385 9.54667 41.6385 10.32C41.6385 10.8567 41.7035 11.275 41.8335 11.575C41.9635 11.875 42.1402 12.085 42.3635 12.205C42.5902 12.325 42.8468 12.385 43.1335 12.385ZM49.038 13.095C48.4747 13.095 48.0014 13 47.618 12.81C47.238 12.6167 46.9514 12.315 46.758 11.905C46.5647 11.4917 46.468 10.9517 46.468 10.285C46.468 9.64833 46.5564 9.12333 46.733 8.71C46.913 8.29667 47.1664 7.99 47.493 7.79C47.823 7.59 48.213 7.49 48.663 7.49C49.1064 7.49 49.483 7.59167 49.793 7.795C50.1064 7.995 50.3447 8.30333 50.508 8.72C50.6714 9.13333 50.753 9.66167 50.753 10.305V10.55H46.903V10.005H50.163L49.988 10.125C49.988 9.61833 49.9347 9.215 49.828 8.915C49.7247 8.615 49.573 8.4 49.373 8.27C49.1764 8.13667 48.9364 8.07 48.653 8.07C48.373 8.07 48.1297 8.135 47.923 8.265C47.7164 8.395 47.5564 8.61 47.443 8.91C47.333 9.21 47.278 9.615 47.278 10.125V10.405C47.278 10.905 47.3447 11.305 47.478 11.605C47.6147 11.9017 47.8197 12.1167 48.093 12.25C48.3664 12.38 48.713 12.445 49.133 12.445C49.3397 12.445 49.553 12.4267 49.773 12.39C49.9964 12.35 50.233 12.295 50.483 12.225V12.88C50.223 12.9533 49.9747 13.0067 49.738 13.04C49.5047 13.0767 49.2714 13.095 49.038 13.095ZM54.4309 13V5.71C54.7376 5.65 55.0443 5.60333 55.3509 5.57C55.6609 5.53667 55.9876 5.52 56.3309 5.52C57.3076 5.52 58.0459 5.72333 58.5459 6.13C59.0493 6.53333 59.3009 7.17167 59.3009 8.045C59.3009 8.865 59.0509 9.49167 58.5509 9.925C58.0543 10.3583 57.2759 10.575 56.2159 10.575C56.0426 10.575 55.8793 10.5717 55.7259 10.565C55.5759 10.555 55.4143 10.5433 55.2409 10.53V13H54.4309ZM56.2309 9.915C57.0276 9.915 57.6043 9.76333 57.9609 9.46C58.3176 9.15333 58.4959 8.68667 58.4959 8.06C58.4959 7.40333 58.3209 6.92667 57.9709 6.63C57.6243 6.33 57.0959 6.18 56.3859 6.18C56.1693 6.18 55.9676 6.18833 55.7809 6.205C55.5976 6.21833 55.4176 6.24 55.2409 6.27V9.855C55.4043 9.87833 55.5643 9.895 55.7209 9.905C55.8809 9.91167 56.0509 9.915 56.2309 9.915ZM60.503 13V4.92H61.303V13H60.503ZM64.1625 13.09C63.6525 13.09 63.2508 12.9583 62.9575 12.695C62.6675 12.4317 62.5225 12.07 62.5225 11.61C62.5225 11.1367 62.6775 10.7683 62.9875 10.505C63.3008 10.2383 63.8025 10.0717 64.4925 10.005L65.9475 9.85L66.0225 10.38L64.5425 10.54C64.1125 10.5833 63.8025 10.6883 63.6125 10.855C63.4258 11.0183 63.3325 11.245 63.3325 11.535C63.3325 11.8383 63.4192 12.07 63.5925 12.23C63.7658 12.39 64.0242 12.47 64.3675 12.47C64.6042 12.47 64.8425 12.42 65.0825 12.32C65.3225 12.2167 65.5375 12.045 65.7275 11.805V9.41C65.7275 9.07667 65.6758 8.82 65.5725 8.64C65.4692 8.45667 65.3142 8.32833 65.1075 8.255C64.9008 8.18167 64.6408 8.145 64.3275 8.145C64.1242 8.145 63.8925 8.16333 63.6325 8.2C63.3758 8.23667 63.1192 8.29833 62.8625 8.385V7.73C63.0958 7.65333 63.3525 7.595 63.6325 7.555C63.9158 7.51167 64.1825 7.49 64.4325 7.49C64.8925 7.49 65.2758 7.55 65.5825 7.67C65.8925 7.79 66.1242 7.99333 66.2775 8.28C66.4342 8.56333 66.5125 8.95167 66.5125 9.445V13H65.8425L65.7825 12.395H65.7325C65.5558 12.6183 65.3292 12.79 65.0525 12.91C64.7792 13.03 64.4825 13.09 64.1625 13.09ZM67.964 13V7.575H68.639L68.694 8.185H68.749C68.969 7.96167 69.2257 7.79 69.519 7.67C69.8123 7.55 70.124 7.49 70.454 7.49C70.794 7.49 71.094 7.55333 71.354 7.68C71.6173 7.80333 71.8223 8.00667 71.969 8.29C72.119 8.57 72.194 8.945 72.194 9.415V13H71.399V9.45C71.399 8.98333 71.2957 8.66 71.089 8.48C70.8857 8.29667 70.609 8.205 70.259 8.205C70.099 8.205 69.929 8.22833 69.749 8.275C69.569 8.32167 69.3923 8.39833 69.219 8.505C69.049 8.61167 68.8973 8.75333 68.764 8.93V13H67.964Z" fill="white"/>
<rect x="103" width="84" height="19" rx="9.5" fill="#512794"/>
<path d="M127.865 13V5.6H128.83L131.505 11.345H131.33L133.97 5.6H134.935V13H134.17V6.305H134.4L131.765 11.975H131.035L128.37 6.305H128.63V13H127.865ZM137.899 13.09C137.389 13.09 136.987 12.9583 136.694 12.695C136.404 12.4317 136.259 12.07 136.259 11.61C136.259 11.1367 136.414 10.7683 136.724 10.505C137.037 10.2383 137.539 10.0717 138.229 10.005L139.684 9.85L139.759 10.38L138.279 10.54C137.849 10.5833 137.539 10.6883 137.349 10.855C137.162 11.0183 137.069 11.245 137.069 11.535C137.069 11.8383 137.155 12.07 137.329 12.23C137.502 12.39 137.76 12.47 138.104 12.47C138.34 12.47 138.579 12.42 138.819 12.32C139.059 12.2167 139.274 12.045 139.464 11.805V9.41C139.464 9.07667 139.412 8.82 139.309 8.64C139.205 8.45667 139.05 8.32833 138.844 8.255C138.637 8.18167 138.377 8.145 138.064 8.145C137.86 8.145 137.629 8.16333 137.369 8.2C137.112 8.23667 136.855 8.29833 136.599 8.385V7.73C136.832 7.65333 137.089 7.595 137.369 7.555C137.652 7.51167 137.919 7.49 138.169 7.49C138.629 7.49 139.012 7.55 139.319 7.67C139.629 7.79 139.86 7.99333 140.014 8.28C140.17 8.56333 140.249 8.95167 140.249 9.445V13H139.579L139.519 12.395H139.469C139.292 12.6183 139.065 12.79 138.789 12.91C138.515 13.03 138.219 13.09 137.899 13.09ZM141.7 13V7.575H142.375L142.43 8.185H142.485C142.705 7.96167 142.962 7.79 143.255 7.67C143.549 7.55 143.86 7.49 144.19 7.49C144.53 7.49 144.83 7.55333 145.09 7.68C145.354 7.80333 145.559 8.00667 145.705 8.29C145.855 8.57 145.93 8.945 145.93 9.415V13H145.135V9.45C145.135 8.98333 145.032 8.66 144.825 8.48C144.622 8.29667 144.345 8.205 143.995 8.205C143.835 8.205 143.665 8.22833 143.485 8.275C143.305 8.32167 143.129 8.39833 142.955 8.505C142.785 8.61167 142.634 8.75333 142.5 8.93V13H141.7ZM148.729 13.09C148.219 13.09 147.817 12.9583 147.524 12.695C147.234 12.4317 147.089 12.07 147.089 11.61C147.089 11.1367 147.244 10.7683 147.554 10.505C147.867 10.2383 148.369 10.0717 149.059 10.005L150.514 9.85L150.589 10.38L149.109 10.54C148.679 10.5833 148.369 10.6883 148.179 10.855C147.992 11.0183 147.899 11.245 147.899 11.535C147.899 11.8383 147.986 12.07 148.159 12.23C148.332 12.39 148.591 12.47 148.934 12.47C149.171 12.47 149.409 12.42 149.649 12.32C149.889 12.2167 150.104 12.045 150.294 11.805V9.41C150.294 9.07667 150.242 8.82 150.139 8.64C150.036 8.45667 149.881 8.32833 149.674 8.255C149.467 8.18167 149.207 8.145 148.894 8.145C148.691 8.145 148.459 8.16333 148.199 8.2C147.942 8.23667 147.686 8.29833 147.429 8.385V7.73C147.662 7.65333 147.919 7.595 148.199 7.555C148.482 7.51167 148.749 7.49 148.999 7.49C149.459 7.49 149.842 7.55 150.149 7.67C150.459 7.79 150.691 7.99333 150.844 8.28C151.001 8.56333 151.079 8.95167 151.079 9.445V13H150.409L150.349 12.395H150.299C150.122 12.6183 149.896 12.79 149.619 12.91C149.346 13.03 149.049 13.09 148.729 13.09ZM154.19 15.3C153.94 15.3 153.672 15.2783 153.385 15.235C153.102 15.195 152.837 15.135 152.59 15.055V14.385C152.874 14.4717 153.144 14.535 153.4 14.575C153.66 14.6183 153.909 14.64 154.145 14.64C154.732 14.64 155.165 14.5133 155.445 14.26C155.725 14.01 155.865 13.575 155.865 12.955V12.425H155.82C155.657 12.615 155.447 12.77 155.19 12.89C154.937 13.01 154.647 13.07 154.32 13.07C153.944 13.07 153.599 12.9833 153.285 12.81C152.972 12.6333 152.72 12.35 152.53 11.96C152.34 11.5667 152.245 11.045 152.245 10.395C152.245 9.42167 152.477 8.695 152.94 8.215C153.407 7.73167 154.092 7.49 154.995 7.49C155.182 7.49 155.372 7.5 155.565 7.52C155.762 7.54 155.954 7.56833 156.14 7.605C156.327 7.64167 156.502 7.685 156.665 7.735V12.835C156.665 13.715 156.459 14.345 156.045 14.725C155.632 15.1083 155.014 15.3 154.19 15.3ZM154.555 12.385C154.799 12.385 155.037 12.3333 155.27 12.23C155.507 12.1267 155.705 11.9683 155.865 11.755V8.255C155.745 8.225 155.604 8.2 155.44 8.18C155.277 8.15667 155.107 8.145 154.93 8.145C154.324 8.145 153.86 8.315 153.54 8.655C153.22 8.99167 153.06 9.54667 153.06 10.32C153.06 10.8567 153.125 11.275 153.255 11.575C153.385 11.875 153.562 12.085 153.785 12.205C154.012 12.325 154.269 12.385 154.555 12.385ZM160.46 13.095C159.897 13.095 159.423 13 159.04 12.81C158.66 12.6167 158.373 12.315 158.18 11.905C157.987 11.4917 157.89 10.9517 157.89 10.285C157.89 9.64833 157.978 9.12333 158.155 8.71C158.335 8.29667 158.588 7.99 158.915 7.79C159.245 7.59 159.635 7.49 160.085 7.49C160.528 7.49 160.905 7.59167 161.215 7.795C161.528 7.995 161.767 8.30333 161.93 8.72C162.093 9.13333 162.175 9.66167 162.175 10.305V10.55H158.325V10.005H161.585L161.41 10.125C161.41 9.61833 161.357 9.215 161.25 8.915C161.147 8.615 160.995 8.4 160.795 8.27C160.598 8.13667 160.358 8.07 160.075 8.07C159.795 8.07 159.552 8.135 159.345 8.265C159.138 8.395 158.978 8.61 158.865 8.91C158.755 9.21 158.7 9.615 158.7 10.125V10.405C158.7 10.905 158.767 11.305 158.9 11.605C159.037 11.9017 159.242 12.1167 159.515 12.25C159.788 12.38 160.135 12.445 160.555 12.445C160.762 12.445 160.975 12.4267 161.195 12.39C161.418 12.35 161.655 12.295 161.905 12.225V12.88C161.645 12.9533 161.397 13.0067 161.16 13.04C160.927 13.0767 160.693 13.095 160.46 13.095Z" fill="white"/>
</svg>
