<svg width="224" height="82" viewBox="0 0 224 82" fill="none" xmlns="http://www.w3.org/2000/svg">
<g filter="url(#filter0_d_10_1245)">
<rect x="48" y="17" width="134" height="40" rx="12" fill="white"/>
<path d="M62.845 33.4878V26.2078C63.035 26.1711 63.2317 26.1378 63.435 26.1078C63.6417 26.0778 63.86 26.0545 64.09 26.0378C64.32 26.0178 64.5633 26.0078 64.82 26.0078C65.7933 26.0078 66.5183 26.1861 66.995 26.5428C67.4717 26.8961 67.71 27.4495 67.71 28.2028C67.71 28.6961 67.5933 29.1078 67.36 29.4378C67.13 29.7678 66.79 30.0161 66.34 30.1828C65.89 30.3495 65.3333 30.4328 64.67 30.4328C64.4667 30.4328 64.2867 30.4295 64.13 30.4228C63.9733 30.4128 63.8117 30.4011 63.645 30.3878V33.4878H62.845ZM67.355 33.4878L64.745 30.0078H65.65L68.28 33.4878H67.355ZM64.675 29.7828C65.4683 29.7828 66.0433 29.6545 66.4 29.3978C66.7567 29.1411 66.935 28.7461 66.935 28.2128C66.935 27.8428 66.8633 27.5445 66.72 27.3178C66.5767 27.0878 66.3517 26.9211 66.045 26.8178C65.7417 26.7111 65.3483 26.6578 64.865 26.6578C64.615 26.6578 64.3967 26.6678 64.21 26.6878C64.0233 26.7045 63.835 26.7295 63.645 26.7628V29.7328C63.775 29.7461 63.8917 29.7561 63.995 29.7628C64.0983 29.7695 64.2033 29.7745 64.31 29.7778C64.4167 29.7811 64.5383 29.7828 64.675 29.7828ZM71.2998 33.5828C70.7364 33.5828 70.2631 33.4878 69.8798 33.2978C69.4998 33.1045 69.2131 32.8028 69.0198 32.3928C68.8264 31.9795 68.7298 31.4395 68.7298 30.7728C68.7298 30.1361 68.8181 29.6111 68.9948 29.1978C69.1748 28.7845 69.4281 28.4778 69.7548 28.2778C70.0848 28.0778 70.4748 27.9778 70.9248 27.9778C71.3681 27.9778 71.7448 28.0795 72.0548 28.2828C72.3681 28.4828 72.6064 28.7911 72.7698 29.2078C72.9331 29.6211 73.0148 30.1495 73.0148 30.7928V31.0378H69.1648V30.4928H72.4248L72.2498 30.6128C72.2498 30.1061 72.1964 29.7028 72.0898 29.4028C71.9864 29.1028 71.8348 28.8878 71.6348 28.7578C71.4381 28.6245 71.1981 28.5578 70.9148 28.5578C70.6348 28.5578 70.3914 28.6228 70.1848 28.7528C69.9781 28.8828 69.8181 29.0978 69.7048 29.3978C69.5948 29.6978 69.5398 30.1028 69.5398 30.6128V30.8928C69.5398 31.3928 69.6064 31.7928 69.7398 32.0928C69.8764 32.3895 70.0814 32.6045 70.3548 32.7378C70.6281 32.8678 70.9748 32.9328 71.3948 32.9328C71.6014 32.9328 71.8148 32.9145 72.0348 32.8778C72.2581 32.8378 72.4948 32.7828 72.7448 32.7128V33.3678C72.4848 33.4411 72.2364 33.4945 71.9998 33.5278C71.7664 33.5645 71.5331 33.5828 71.2998 33.5828ZM74.1613 33.4878V28.0628H74.8363L74.8913 28.6728H74.9463C75.1663 28.4495 75.4229 28.2778 75.7163 28.1578C76.0096 28.0378 76.3213 27.9778 76.6513 27.9778C76.9913 27.9778 77.2913 28.0411 77.5513 28.1678C77.8146 28.2911 78.0196 28.4945 78.1663 28.7778C78.3163 29.0578 78.3913 29.4328 78.3913 29.9028V33.4878H77.5963V29.9378C77.5963 29.4711 77.4929 29.1478 77.2863 28.9678C77.0829 28.7845 76.8063 28.6928 76.4563 28.6928C76.2963 28.6928 76.1263 28.7161 75.9463 28.7628C75.7663 28.8095 75.5896 28.8861 75.4163 28.9928C75.2463 29.0995 75.0946 29.2411 74.9613 29.4178V33.4878H74.1613ZM81.9148 33.5828C81.3615 33.5828 80.9315 33.4411 80.6248 33.1578C80.3182 32.8711 80.1648 32.4145 80.1648 31.7878V28.0628L80.2948 26.0878H80.9648V31.6578C80.9648 32.1145 81.0582 32.4345 81.2448 32.6178C81.4348 32.8011 81.7165 32.8928 82.0898 32.8928C82.1898 32.8928 82.2932 32.8861 82.3998 32.8728C82.5065 32.8561 82.6232 32.8345 82.7498 32.8078V33.4828C82.6165 33.5161 82.4798 33.5411 82.3398 33.5578C82.1998 33.5745 82.0582 33.5828 81.9148 33.5828ZM79.1448 28.7228V28.0628H82.6698V28.7228H79.1448ZM92.3515 33.5878L88.3715 30.5678C87.9482 30.2478 87.6165 29.9561 87.3765 29.6928C87.1398 29.4261 86.9732 29.1678 86.8765 28.9178C86.7798 28.6645 86.7315 28.3945 86.7315 28.1078C86.7315 27.4378 86.9482 26.9178 87.3815 26.5478C87.8182 26.1778 88.4798 25.9928 89.3665 25.9928C89.5965 25.9928 89.8132 26.0061 90.0165 26.0328C90.2198 26.0561 90.4082 26.0895 90.5815 26.1328V26.8328C90.3982 26.7828 90.2065 26.7461 90.0065 26.7228C89.8098 26.6961 89.6082 26.6828 89.4015 26.6828C88.9648 26.6828 88.6098 26.7395 88.3365 26.8528C88.0665 26.9628 87.8682 27.1245 87.7415 27.3378C87.6148 27.5511 87.5515 27.8111 87.5515 28.1178C87.5515 28.3311 87.5848 28.5295 87.6515 28.7128C87.7215 28.8961 87.8448 29.0878 88.0215 29.2878C88.1982 29.4845 88.4482 29.7111 88.7715 29.9678L92.7515 32.9878L92.3515 33.5878ZM88.6615 33.5778C88.0648 33.5778 87.5665 33.4895 87.1665 33.3128C86.7665 33.1361 86.4648 32.8895 86.2615 32.5728C86.0615 32.2561 85.9615 31.8895 85.9615 31.4728C85.9615 31.1561 86.0165 30.8678 86.1265 30.6078C86.2398 30.3445 86.3998 30.1145 86.6065 29.9178C86.8132 29.7178 87.0598 29.5561 87.3465 29.4328L87.7715 29.8428C87.4415 30.0061 87.1932 30.2178 87.0265 30.4778C86.8632 30.7345 86.7815 31.0378 86.7815 31.3878C86.7815 31.7011 86.8515 31.9745 86.9915 32.2078C87.1315 32.4411 87.3448 32.6228 87.6315 32.7528C87.9215 32.8828 88.2898 32.9478 88.7365 32.9478C89.1798 32.9478 89.5632 32.8761 89.8865 32.7328C90.2098 32.5861 90.4582 32.3595 90.6315 32.0528C90.8048 31.7428 90.8915 31.3411 90.8915 30.8478C90.8915 30.6345 90.8732 30.4111 90.8365 30.1778C90.8032 29.9445 90.7515 29.7178 90.6815 29.4978H91.3715C91.4382 29.7178 91.4865 29.9445 91.5165 30.1778C91.5498 30.4078 91.5665 30.6295 91.5665 30.8428C91.5665 31.4428 91.4515 31.9461 91.2215 32.3528C90.9915 32.7561 90.6598 33.0611 90.2265 33.2678C89.7932 33.4745 89.2715 33.5778 88.6615 33.5778ZM65.55 48.5828C64.92 48.5828 64.4033 48.4795 64 48.2728C63.5967 48.0661 63.2967 47.7495 63.1 47.3228C62.9067 46.8928 62.81 46.3478 62.81 45.6878V41.0878H63.62V45.7778C63.62 46.5078 63.775 47.0411 64.085 47.3778C64.3983 47.7145 64.8867 47.8828 65.55 47.8828C66.22 47.8828 66.71 47.7145 67.02 47.3778C67.33 47.0411 67.485 46.5078 67.485 45.7778V41.0878H68.275V45.6878C68.275 46.3478 68.1783 46.8928 67.985 47.3228C67.795 47.7495 67.4983 48.0661 67.095 48.2728C66.695 48.4795 66.18 48.5828 65.55 48.5828ZM71.9051 48.5828C71.3517 48.5828 70.9217 48.4411 70.6151 48.1578C70.3084 47.8711 70.1551 47.4145 70.1551 46.7878V43.0628L70.2851 41.0878H70.9551V46.6578C70.9551 47.1145 71.0484 47.4345 71.2351 47.6178C71.4251 47.8011 71.7067 47.8928 72.0801 47.8928C72.1801 47.8928 72.2834 47.8861 72.3901 47.8728C72.4967 47.8561 72.6134 47.8345 72.7401 47.8078V48.4828C72.6067 48.5161 72.4701 48.5411 72.3301 48.5578C72.1901 48.5745 72.0484 48.5828 71.9051 48.5828ZM69.1351 43.7228V43.0628H72.6601V43.7228H69.1351ZM73.5948 48.4878V43.0628H74.3948V48.4878H73.5948ZM73.9948 41.8828C73.8148 41.8828 73.6765 41.8395 73.5798 41.7528C73.4865 41.6628 73.4398 41.5395 73.4398 41.3828C73.4398 41.2228 73.4865 41.0978 73.5798 41.0078C73.6765 40.9178 73.8148 40.8728 73.9948 40.8728C74.1748 40.8728 74.3115 40.9178 74.4048 41.0078C74.5015 41.0978 74.5498 41.2228 74.5498 41.3828C74.5498 41.5395 74.5015 41.6628 74.4048 41.7528C74.3115 41.8395 74.1748 41.8828 73.9948 41.8828ZM75.9093 48.4878V40.4078H76.7093V48.4878H75.9093ZM78.2238 48.4878V43.0628H79.0238V48.4878H78.2238ZM78.6238 41.8828C78.4438 41.8828 78.3054 41.8395 78.2088 41.7528C78.1154 41.6628 78.0688 41.5395 78.0688 41.3828C78.0688 41.2228 78.1154 41.0978 78.2088 41.0078C78.3054 40.9178 78.4438 40.8728 78.6238 40.8728C78.8038 40.8728 78.9404 40.9178 79.0338 41.0078C79.1304 41.0978 79.1788 41.2228 79.1788 41.3828C79.1788 41.5395 79.1304 41.6628 79.0338 41.7528C78.9404 41.8395 78.8038 41.8828 78.6238 41.8828ZM82.6082 48.5828C82.0549 48.5828 81.6249 48.4411 81.3182 48.1578C81.0115 47.8711 80.8582 47.4145 80.8582 46.7878V43.0628L80.9882 41.0878H81.6582V46.6578C81.6582 47.1145 81.7515 47.4345 81.9382 47.6178C82.1282 47.8011 82.4099 47.8928 82.7832 47.8928C82.8832 47.8928 82.9865 47.8861 83.0932 47.8728C83.1999 47.8561 83.3165 47.8345 83.4432 47.8078V48.4828C83.3099 48.5161 83.1732 48.5411 83.0332 48.5578C82.8932 48.5745 82.7515 48.5828 82.6082 48.5828ZM79.8382 43.7228V43.0628H83.3632V43.7228H79.8382ZM84.298 48.4878V43.0628H85.098V48.4878H84.298ZM84.698 41.8828C84.518 41.8828 84.3796 41.8395 84.283 41.7528C84.1896 41.6628 84.143 41.5395 84.143 41.3828C84.143 41.2228 84.1896 41.0978 84.283 41.0078C84.3796 40.9178 84.518 40.8728 84.698 40.8728C84.878 40.8728 85.0146 40.9178 85.108 41.0078C85.2046 41.0978 85.253 41.2228 85.253 41.3828C85.253 41.5395 85.2046 41.6628 85.108 41.7528C85.0146 41.8395 84.878 41.8828 84.698 41.8828ZM88.8974 48.5828C88.3341 48.5828 87.8608 48.4878 87.4774 48.2978C87.0974 48.1045 86.8108 47.8028 86.6174 47.3928C86.4241 46.9795 86.3274 46.4395 86.3274 45.7728C86.3274 45.1361 86.4158 44.6111 86.5924 44.1978C86.7724 43.7845 87.0258 43.4778 87.3524 43.2778C87.6824 43.0778 88.0724 42.9778 88.5224 42.9778C88.9658 42.9778 89.3424 43.0795 89.6524 43.2828C89.9658 43.4828 90.2041 43.7911 90.3674 44.2078C90.5308 44.6211 90.6124 45.1495 90.6124 45.7928V46.0378H86.7624V45.4928H90.0224L89.8474 45.6128C89.8474 45.1061 89.7941 44.7028 89.6874 44.4028C89.5841 44.1028 89.4324 43.8878 89.2324 43.7578C89.0358 43.6245 88.7958 43.5578 88.5124 43.5578C88.2324 43.5578 87.9891 43.6228 87.7824 43.7528C87.5758 43.8828 87.4158 44.0978 87.3024 44.3978C87.1924 44.6978 87.1374 45.1028 87.1374 45.6128V45.8928C87.1374 46.3928 87.2041 46.7928 87.3374 47.0928C87.4741 47.3895 87.6791 47.6045 87.9524 47.7378C88.2258 47.8678 88.5724 47.9328 88.9924 47.9328C89.1991 47.9328 89.4124 47.9145 89.6324 47.8778C89.8558 47.8378 90.0924 47.7828 90.3424 47.7128V48.3678C90.0824 48.4411 89.8341 48.4945 89.5974 48.5278C89.3641 48.5645 89.1308 48.5828 88.8974 48.5828ZM93.0539 48.5828C92.7806 48.5828 92.5189 48.5645 92.2689 48.5278C92.0222 48.4911 91.7822 48.4361 91.5489 48.3628V47.7228C91.8156 47.8028 92.0706 47.8611 92.3139 47.8978C92.5572 47.9311 92.8039 47.9478 93.0539 47.9478C93.5239 47.9478 93.8639 47.8678 94.0739 47.7078C94.2872 47.5478 94.3939 47.3228 94.3939 47.0328C94.3939 46.7861 94.3306 46.5978 94.2039 46.4678C94.0772 46.3345 93.8622 46.2361 93.5589 46.1728L92.8239 46.0228C92.3306 45.9161 91.9772 45.7411 91.7639 45.4978C91.5539 45.2511 91.4489 44.9345 91.4489 44.5478C91.4489 44.0911 91.6239 43.7161 91.9739 43.4228C92.3272 43.1261 92.8689 42.9778 93.5989 42.9778C93.8322 42.9778 94.0539 42.9911 94.2639 43.0178C94.4772 43.0445 94.6822 43.0845 94.8789 43.1378V43.7828C94.6589 43.7228 94.4472 43.6795 94.2439 43.6528C94.0439 43.6261 93.8339 43.6128 93.6139 43.6128C93.2706 43.6128 92.9956 43.6545 92.7889 43.7378C92.5856 43.8178 92.4389 43.9278 92.3489 44.0678C92.2589 44.2045 92.2139 44.3578 92.2139 44.5278C92.2139 44.7411 92.2739 44.9178 92.3939 45.0578C92.5139 45.1978 92.7239 45.3011 93.0239 45.3678L93.7589 45.5178C94.2589 45.6211 94.6172 45.7911 94.8339 46.0278C95.0539 46.2645 95.1639 46.5861 95.1639 46.9928C95.1639 47.4828 94.9839 47.8711 94.6239 48.1578C94.2672 48.4411 93.7439 48.5828 93.0539 48.5828Z" fill="#BCBDBD"/>
<path d="M122.749 38.0958C122.363 38.0958 121.971 38.0652 121.571 38.004C121.175 37.9464 120.81 37.8672 120.475 37.7664V36.0978C120.698 36.1698 120.943 36.231 121.21 36.2814C121.476 36.3282 121.739 36.366 121.998 36.3948C122.261 36.4236 122.498 36.438 122.711 36.438C123.064 36.438 123.339 36.4092 123.537 36.3516C123.739 36.2904 123.881 36.204 123.964 36.0924C124.046 35.9808 124.088 35.8494 124.088 35.6982C124.088 35.5074 124.019 35.3562 123.883 35.2446C123.749 35.1294 123.481 35.0196 123.078 34.9152L122.419 34.7478C121.71 34.5714 121.172 34.2924 120.805 33.9108C120.441 33.5292 120.259 33.027 120.259 32.4042C120.259 31.6122 120.553 30.9948 121.139 30.552C121.726 30.1092 122.623 29.8878 123.829 29.8878C124.178 29.8878 124.514 29.9076 124.838 29.9472C125.166 29.9868 125.458 30.0372 125.713 30.0984V31.767C125.465 31.6986 125.182 31.6446 124.865 31.605C124.549 31.5654 124.25 31.5456 123.969 31.5456C123.537 31.5456 123.2 31.578 122.959 31.6428C122.722 31.7076 122.554 31.7976 122.457 31.9128C122.363 32.0244 122.317 32.1504 122.317 32.2908C122.317 32.4672 122.374 32.6094 122.489 32.7174C122.608 32.8218 122.839 32.9208 123.181 33.0144L123.845 33.1818C124.37 33.3114 124.802 33.4824 125.141 33.6948C125.483 33.9036 125.735 34.1628 125.897 34.4724C126.062 34.7784 126.145 35.1402 126.145 35.5578C126.145 36.0798 126.01 36.5316 125.74 36.9132C125.474 37.2912 125.087 37.5828 124.579 37.788C124.075 37.9932 123.465 38.0958 122.749 38.0958ZM122.246 39.2838V37.6152L124.158 37.6098V39.2838H122.246ZM122.246 30.2766V28.6998H124.158V30.2766H122.246ZM135.113 44.1588C134.495 44.1588 133.892 44.1198 133.304 44.0418C132.722 43.9638 132.17 43.8498 131.648 43.6998V41.5128C132.158 41.6568 132.71 41.7708 133.304 41.8548C133.898 41.9388 134.462 41.9808 134.996 41.9808C135.956 41.9808 136.655 41.8218 137.093 41.5038C137.531 41.1858 137.75 40.7208 137.75 40.1088C137.75 39.5208 137.54 39.0708 137.12 38.7588C136.706 38.4408 136.004 38.2818 135.014 38.2818H133.061V36.0678H134.573C135.533 36.0678 136.22 35.9148 136.634 35.6088C137.054 35.3028 137.264 34.8738 137.264 34.3218C137.264 33.7818 137.072 33.3738 136.688 33.0978C136.31 32.8158 135.71 32.6748 134.888 32.6748C134.39 32.6748 133.877 32.7168 133.349 32.8008C132.827 32.8848 132.338 33.0078 131.882 33.1698V30.9828C132.17 30.8868 132.5 30.8028 132.872 30.7308C133.244 30.6528 133.631 30.5958 134.033 30.5598C134.435 30.5178 134.825 30.4968 135.203 30.4968C136.817 30.4968 138.029 30.8088 138.839 31.4328C139.655 32.0508 140.063 32.9268 140.063 34.0608C140.063 34.8648 139.832 35.5428 139.37 36.0948C138.914 36.6468 138.281 37.0098 137.471 37.1838L137.48 37.0398C138.446 37.1838 139.19 37.5318 139.712 38.0838C140.234 38.6298 140.495 39.3648 140.495 40.2888C140.495 41.0928 140.297 41.7858 139.901 42.3678C139.511 42.9438 138.917 43.3878 138.119 43.6998C137.321 44.0058 136.319 44.1588 135.113 44.1588ZM143.572 44.1408C143.008 44.1408 142.555 43.9848 142.213 43.6728C141.877 43.3608 141.709 42.9378 141.709 42.4038C141.709 41.8638 141.874 41.4378 142.204 41.1258C142.54 40.8138 142.996 40.6578 143.572 40.6578C144.148 40.6578 144.601 40.8168 144.931 41.1348C145.267 41.4528 145.435 41.8758 145.435 42.4038C145.435 42.9258 145.264 43.3458 144.922 43.6638C144.586 43.9818 144.136 44.1408 143.572 44.1408ZM150.385 44.1588C149.767 44.1588 149.164 44.1138 148.576 44.0238C147.988 43.9398 147.436 43.8198 146.92 43.6638V41.4768C147.424 41.6208 147.973 41.7378 148.567 41.8278C149.161 41.9118 149.728 41.9538 150.268 41.9538C151.222 41.9538 151.915 41.7948 152.347 41.4768C152.779 41.1588 152.995 40.6938 152.995 40.0818C152.995 39.6678 152.884 39.3228 152.662 39.0468C152.44 38.7708 152.041 38.5548 151.465 38.3988C150.895 38.2368 150.082 38.1228 149.026 38.0568L147.334 37.9668L147.793 30.6678H155.218V32.9178H149.206L150.484 31.6578L150.133 36.8508L148.423 35.8158L150.106 35.9148C151.456 35.9868 152.545 36.1848 153.373 36.5088C154.201 36.8328 154.804 37.2858 155.182 37.8678C155.566 38.4498 155.758 39.1638 155.758 40.0098C155.758 41.3598 155.305 42.3888 154.399 43.0968C153.493 43.8048 152.155 44.1588 150.385 44.1588ZM165.385 43.9878L160.741 37.2018L165.106 30.6678H168.184L163.603 37.5258L163.648 36.7698L168.571 43.9878H165.385ZM157.384 43.9878V30.6678H160.309V43.9878H157.384ZM159.904 38.4618V35.8878H161.893V38.4618H159.904Z" fill="#453886"/>
</g>
<path d="M193 29C193 22.3726 198.373 17 205 17H224V57H205C198.373 57 193 51.6274 193 45V29Z" fill="#34357F"/>
<path d="M37 29C37 22.3726 31.6274 17 25 17H0V57H25C31.6274 57 37 51.6274 37 45V29Z" fill="#492689"/>
<defs>
<filter id="filter0_d_10_1245" x="27.2" y="0.200001" width="175.6" height="81.6" filterUnits="userSpaceOnUse" color-interpolation-filters="sRGB">
<feFlood flood-opacity="0" result="BackgroundImageFix"/>
<feColorMatrix in="SourceAlpha" type="matrix" values="0 0 0 0 0 0 0 0 0 0 0 0 0 0 0 0 0 0 127 0" result="hardAlpha"/>
<feOffset dy="4"/>
<feGaussianBlur stdDeviation="10.4"/>
<feComposite in2="hardAlpha" operator="out"/>
<feColorMatrix type="matrix" values="0 0 0 0 0 0 0 0 0 0 0 0 0 0 0 0 0 0 0.25 0"/>
<feBlend mode="normal" in2="BackgroundImageFix" result="effect1_dropShadow_10_1245"/>
<feBlend mode="normal" in="SourceGraphic" in2="effect1_dropShadow_10_1245" result="shape"/>
</filter>
</defs>
</svg>
