<svg width="188" height="16" viewBox="0 0 188 16" fill="none" xmlns="http://www.w3.org/2000/svg">
<path d="M1 4.5H14" stroke="white" stroke-width="2" stroke-linecap="round"/>
<path d="M1 10.5H10" stroke="white" stroke-width="2" stroke-linecap="round"/>
<path d="M64.234 11.09C63.986 11.09 63.726 11.084 63.454 11.072C63.182 11.064 62.906 11.05 62.626 11.03C62.346 11.01 62.07 10.982 61.798 10.946V2.318C62.074 2.258 62.368 2.206 62.68 2.162C62.996 2.118 63.318 2.084 63.646 2.06C63.974 2.036 64.296 2.024 64.612 2.024C66.224 2.024 67.44 2.392 68.26 3.128C69.084 3.86 69.496 5.004 69.496 6.56C69.496 7.62 69.302 8.484 68.914 9.152C68.526 9.816 67.942 10.306 67.162 10.622C66.382 10.934 65.406 11.09 64.234 11.09ZM64.738 9.506C65.354 9.506 65.866 9.41 66.274 9.218C66.686 9.022 66.992 8.708 67.192 8.276C67.396 7.84 67.498 7.266 67.498 6.554C67.498 5.846 67.394 5.276 67.186 4.844C66.982 4.408 66.676 4.092 66.268 3.896C65.86 3.696 65.354 3.596 64.75 3.596C64.598 3.596 64.432 3.604 64.252 3.62C64.072 3.636 63.904 3.658 63.748 3.686V9.464C63.912 9.48 64.074 9.492 64.234 9.5C64.398 9.504 64.566 9.506 64.738 9.506ZM72.4611 11.12C71.7891 11.12 71.2651 10.946 70.8891 10.598C70.5171 10.246 70.3311 9.788 70.3311 9.224C70.3311 8.604 70.5451 8.12 70.9731 7.772C71.4051 7.424 72.1011 7.218 73.0611 7.154L74.4411 7.04L74.6451 8.096L73.2531 8.21C72.8851 8.238 72.6191 8.322 72.4551 8.462C72.2951 8.602 72.2151 8.794 72.2151 9.038C72.2151 9.278 72.2891 9.464 72.4371 9.596C72.5851 9.724 72.8011 9.788 73.0851 9.788C73.2611 9.788 73.4411 9.758 73.6251 9.698C73.8091 9.634 73.9771 9.526 74.1291 9.374V6.974C74.1291 6.674 74.0791 6.438 73.9791 6.266C73.8831 6.094 73.7251 5.972 73.5051 5.9C73.2891 5.824 72.9991 5.786 72.6351 5.786C72.3831 5.786 72.0971 5.808 71.7771 5.852C71.4571 5.892 71.1511 5.958 70.8591 6.05V4.61C71.1791 4.518 71.5291 4.45 71.9091 4.406C72.2931 4.358 72.6491 4.334 72.9771 4.334C73.6731 4.334 74.2431 4.42 74.6871 4.592C75.1351 4.764 75.4651 5.052 75.6771 5.456C75.8891 5.856 75.9951 6.402 75.9951 7.094V11H74.4231L74.2911 10.346H74.2011C74.0051 10.614 73.7551 10.81 73.4511 10.934C73.1471 11.058 72.8171 11.12 72.4611 11.12ZM79.2963 11.126C78.9203 11.126 78.5543 11.102 78.1982 11.054C77.8463 11.006 77.5143 10.934 77.2023 10.838V9.434C77.5183 9.53 77.8523 9.604 78.2043 9.656C78.5563 9.704 78.9123 9.728 79.2723 9.728C79.7043 9.728 80.0083 9.672 80.1842 9.56C80.3643 9.444 80.4543 9.284 80.4543 9.08C80.4543 8.916 80.4103 8.792 80.3223 8.708C80.2343 8.624 80.0803 8.56 79.8603 8.516L78.7923 8.324C78.1763 8.208 77.7283 7.994 77.4482 7.682C77.1683 7.37 77.0283 6.952 77.0283 6.428C77.0283 5.8 77.2803 5.294 77.7843 4.91C78.2923 4.526 79.0703 4.334 80.1183 4.334C80.4383 4.334 80.7483 4.352 81.0483 4.388C81.3523 4.424 81.6263 4.474 81.8703 4.538V5.942C81.6143 5.87 81.3423 5.816 81.0543 5.78C80.7663 5.744 80.4723 5.726 80.1723 5.726C79.8083 5.726 79.5283 5.758 79.3323 5.822C79.1363 5.882 78.9983 5.962 78.9183 6.062C78.8423 6.162 78.8043 6.27 78.8043 6.386C78.8043 6.526 78.8483 6.64 78.9363 6.728C79.0243 6.816 79.1763 6.884 79.3923 6.932L80.4603 7.124C81.0443 7.232 81.4843 7.432 81.7803 7.724C82.0803 8.012 82.2303 8.442 82.2303 9.014C82.2303 9.666 81.9743 10.182 81.4623 10.562C80.9543 10.938 80.2323 11.126 79.2963 11.126ZM83.2413 11V1.304H85.1493V5.096H85.2453C85.4693 4.848 85.7333 4.66 86.0373 4.532C86.3413 4.4 86.6813 4.334 87.0573 4.334C87.4573 4.334 87.8193 4.418 88.1433 4.586C88.4673 4.754 88.7233 5.028 88.9113 5.408C89.1033 5.784 89.1993 6.284 89.1993 6.908V11H87.2853V7.034C87.2853 6.634 87.2013 6.36 87.0333 6.212C86.8693 6.06 86.6453 5.984 86.3613 5.984C86.2173 5.984 86.0713 6.004 85.9233 6.044C85.7753 6.08 85.6333 6.138 85.4973 6.218C85.3653 6.298 85.2493 6.398 85.1493 6.518V11H83.2413ZM93.1033 11.12C92.6833 11.12 92.2513 11.09 91.8073 11.03C91.3673 10.97 90.9573 10.878 90.5773 10.754V1.304H92.4853V5.078H92.5813C92.7733 4.842 93.0113 4.66 93.2953 4.532C93.5793 4.4 93.9073 4.334 94.2793 4.334C94.7353 4.334 95.1573 4.446 95.5453 4.67C95.9333 4.894 96.2433 5.246 96.4753 5.726C96.7073 6.206 96.8233 6.826 96.8233 7.586C96.8233 8.742 96.5153 9.62 95.8993 10.22C95.2873 10.82 94.3553 11.12 93.1033 11.12ZM93.2713 9.674C93.8113 9.674 94.2173 9.526 94.4893 9.23C94.7653 8.93 94.9033 8.432 94.9033 7.736C94.9033 7.26 94.8453 6.89 94.7293 6.626C94.6173 6.358 94.4593 6.17 94.2553 6.062C94.0553 5.954 93.8213 5.9 93.5533 5.9C93.3613 5.9 93.1713 5.932 92.9833 5.996C92.7953 6.056 92.6293 6.154 92.4853 6.29V9.578C92.5933 9.606 92.7133 9.63 92.8453 9.65C92.9813 9.666 93.1233 9.674 93.2713 9.674ZM100.964 11.126C100.308 11.126 99.7396 11.002 99.2596 10.754C98.7836 10.502 98.4156 10.126 98.1556 9.626C97.8956 9.122 97.7656 8.492 97.7656 7.736C97.7656 6.972 97.8916 6.338 98.1436 5.834C98.3996 5.33 98.7656 4.954 99.2416 4.706C99.7216 4.458 100.296 4.334 100.964 4.334C101.632 4.334 102.204 4.46 102.68 4.712C103.16 4.96 103.526 5.336 103.778 5.84C104.034 6.34 104.162 6.968 104.162 7.724C104.162 8.484 104.032 9.116 103.772 9.62C103.512 10.124 103.142 10.502 102.662 10.754C102.186 11.002 101.62 11.126 100.964 11.126ZM100.964 9.674C101.232 9.674 101.46 9.616 101.648 9.5C101.84 9.384 101.986 9.186 102.086 8.906C102.186 8.622 102.236 8.234 102.236 7.742C102.236 7.238 102.186 6.844 102.086 6.56C101.986 6.276 101.84 6.076 101.648 5.96C101.46 5.84 101.232 5.78 100.964 5.78C100.696 5.78 100.466 5.838 100.274 5.954C100.086 6.07 99.9416 6.27 99.8416 6.554C99.7416 6.834 99.6916 7.222 99.6916 7.718C99.6916 8.222 99.7416 8.616 99.8416 8.9C99.9416 9.184 100.086 9.384 100.274 9.5C100.466 9.616 100.696 9.674 100.964 9.674ZM107.078 11.12C106.406 11.12 105.882 10.946 105.506 10.598C105.134 10.246 104.948 9.788 104.948 9.224C104.948 8.604 105.162 8.12 105.59 7.772C106.022 7.424 106.718 7.218 107.678 7.154L109.058 7.04L109.262 8.096L107.87 8.21C107.502 8.238 107.236 8.322 107.072 8.462C106.912 8.602 106.832 8.794 106.832 9.038C106.832 9.278 106.906 9.464 107.054 9.596C107.202 9.724 107.418 9.788 107.702 9.788C107.878 9.788 108.058 9.758 108.242 9.698C108.426 9.634 108.594 9.526 108.746 9.374V6.974C108.746 6.674 108.696 6.438 108.596 6.266C108.5 6.094 108.342 5.972 108.122 5.9C107.906 5.824 107.616 5.786 107.252 5.786C107 5.786 106.714 5.808 106.394 5.852C106.074 5.892 105.768 5.958 105.476 6.05V4.61C105.796 4.518 106.146 4.45 106.526 4.406C106.91 4.358 107.266 4.334 107.594 4.334C108.29 4.334 108.86 4.42 109.304 4.592C109.752 4.764 110.082 5.052 110.294 5.456C110.506 5.856 110.612 6.402 110.612 7.094V11H109.04L108.908 10.346H108.818C108.622 10.614 108.372 10.81 108.068 10.934C107.764 11.058 107.434 11.12 107.078 11.12ZM111.987 11V4.436H113.553L113.697 5.282H113.793C113.977 4.958 114.221 4.722 114.525 4.574C114.829 4.422 115.163 4.346 115.527 4.346C115.627 4.346 115.723 4.35 115.815 4.358C115.907 4.366 115.989 4.378 116.061 4.394V6.122C115.961 6.102 115.853 6.09 115.737 6.086C115.625 6.078 115.517 6.074 115.413 6.074C115.225 6.074 115.035 6.098 114.843 6.146C114.651 6.19 114.473 6.26 114.309 6.356C114.145 6.448 114.007 6.562 113.895 6.698V11H111.987ZM119.186 11.114C118.702 11.114 118.254 11.004 117.842 10.784C117.434 10.564 117.106 10.214 116.858 9.734C116.614 9.254 116.492 8.628 116.492 7.856C116.492 7.092 116.628 6.448 116.9 5.924C117.172 5.4 117.572 5.004 118.1 4.736C118.632 4.464 119.29 4.328 120.074 4.328C120.206 4.328 120.336 4.334 120.464 4.346C120.596 4.354 120.718 4.364 120.83 4.376V1.304H122.744V11H121.136L121.022 10.31H120.932C120.744 10.55 120.502 10.744 120.206 10.892C119.914 11.04 119.574 11.114 119.186 11.114ZM119.75 9.554C119.946 9.554 120.14 9.518 120.332 9.446C120.528 9.374 120.694 9.262 120.83 9.11V5.858C120.726 5.834 120.606 5.816 120.47 5.804C120.334 5.788 120.2 5.78 120.068 5.78C119.52 5.78 119.108 5.928 118.832 6.224C118.556 6.516 118.418 7.01 118.418 7.706C118.418 8.182 118.474 8.554 118.586 8.822C118.698 9.09 118.852 9.28 119.048 9.392C119.248 9.5 119.482 9.554 119.75 9.554Z" fill="white"/>
<path d="M174 5.5C174 4.91988 174.144 4.34883 174.419 3.83822C174.695 3.32762 175.093 2.89347 175.578 2.57482C176.062 2.25617 176.619 2.06302 177.197 2.01274C177.775 1.96246 178.356 2.05663 178.888 2.28678C179.421 2.51692 179.888 2.87583 180.247 3.33121C180.607 3.7866 180.847 4.32418 180.947 4.8956C181.048 5.46703 181.004 6.05437 180.821 6.60482C180.638 7.15526 180.321 7.65153 179.898 8.049C180.695 8.43566 181.387 9.00876 181.915 9.71971C182.443 10.4307 182.792 11.2585 182.932 12.133C182.947 12.2303 182.944 12.3297 182.921 12.4255C182.898 12.5213 182.856 12.6117 182.798 12.6914C182.74 12.7711 182.667 12.8386 182.583 12.8901C182.499 12.9416 182.406 12.9761 182.308 12.9915C182.211 13.0069 182.112 13.003 182.016 12.9801C181.92 12.9571 181.83 12.9155 181.75 12.8576C181.67 12.7997 181.603 12.7266 181.551 12.6426C181.5 12.5586 181.465 12.4653 181.45 12.368C181.3 11.4283 180.82 10.5729 180.096 9.9553C179.372 9.33773 178.452 8.99848 177.5 8.99848C176.548 8.99848 175.628 9.33773 174.904 9.9553C174.18 10.5729 173.7 11.4283 173.55 12.368C173.534 12.4653 173.5 12.5586 173.448 12.6426C173.397 12.7266 173.329 12.7996 173.25 12.8574C173.17 12.9153 173.079 12.9568 172.984 12.9798C172.888 13.0027 172.788 13.0065 172.691 12.991C172.594 12.9755 172.5 12.941 172.416 12.8894C172.332 12.8379 172.259 12.7703 172.202 12.6905C172.144 12.6108 172.102 12.5204 172.079 12.4246C172.056 12.3287 172.052 12.2293 172.068 12.132C172.208 11.2578 172.557 10.4304 173.086 9.71977C173.614 9.00918 174.305 8.4364 175.102 8.05C174.754 7.72293 174.476 7.32788 174.287 6.88927C174.097 6.45066 173.999 5.97782 174 5.5ZM183 4C183.581 4.00041 184.149 4.16947 184.636 4.48665C185.123 4.80384 185.507 5.25552 185.742 5.78685C185.977 6.31819 186.053 6.90634 185.96 7.47991C185.868 8.05347 185.61 8.58779 185.22 9.018C185.829 9.32019 186.37 9.74305 186.81 10.2608C187.25 10.7787 187.58 11.3806 187.78 12.03C187.82 12.1561 187.825 12.2904 187.796 12.4193C187.767 12.5482 187.704 12.6672 187.615 12.7641C187.525 12.8609 187.411 12.9323 187.284 12.971C187.158 13.0096 187.024 13.0141 186.895 12.984C186.766 12.9541 186.648 12.8908 186.552 12.8006C186.455 12.7103 186.384 12.5963 186.346 12.47C186.167 11.8902 185.84 11.3669 185.398 10.9511C184.956 10.5353 184.414 10.2414 183.824 10.098C183.66 10.0585 183.515 9.96496 183.41 9.83253C183.306 9.7001 183.25 9.53647 183.25 9.368V9.016C183.25 8.87637 183.289 8.73949 183.362 8.62076C183.436 8.50204 183.541 8.40619 183.666 8.344C183.969 8.19376 184.213 7.94543 184.357 7.63935C184.501 7.33327 184.538 6.98743 184.46 6.65799C184.383 6.32855 184.197 6.03487 183.932 5.82465C183.667 5.61443 183.338 5.50002 183 5.5C182.801 5.5 182.61 5.42099 182.47 5.28033C182.329 5.13968 182.25 4.94892 182.25 4.75C182.25 4.55109 182.329 4.36033 182.47 4.21967C182.61 4.07902 182.801 4 183 4ZM177.5 3.5C177.234 3.49398 176.969 3.54123 176.721 3.63898C176.473 3.73672 176.247 3.88299 176.057 4.06921C175.866 4.25542 175.715 4.47782 175.612 4.72335C175.508 4.96888 175.455 5.23259 175.455 5.49899C175.455 5.7654 175.508 6.02914 175.611 6.27472C175.714 6.5203 175.866 6.74277 176.056 6.92908C176.247 7.11539 176.472 7.26177 176.72 7.35964C176.968 7.45751 177.233 7.50489 177.499 7.499C178.022 7.48745 178.519 7.27178 178.884 6.89817C179.25 6.52455 179.455 6.02268 179.455 5.49999C179.455 4.9773 179.25 4.47533 178.885 4.10154C178.52 3.72774 178.023 3.51182 177.5 3.5Z" fill="white"/>
</svg>
