<svg width="190" height="47" viewBox="0 0 190 47" fill="none" xmlns="http://www.w3.org/2000/svg">
<path d="M3.042 10V1.966H0.084V1.12H6.972V1.966H4.014V10H3.042ZM9.57038 10.114C9.01038 10.114 8.52238 9.998 8.10638 9.766C7.69038 9.53 7.36838 9.166 7.14038 8.674C6.91238 8.178 6.79838 7.536 6.79838 6.748C6.79838 5.968 6.91038 5.33 7.13438 4.834C7.36238 4.338 7.68438 3.974 8.10038 3.742C8.51638 3.506 9.00638 3.388 9.57038 3.388C10.1344 3.388 10.6244 3.506 11.0404 3.742C11.4564 3.974 11.7764 4.338 12.0004 4.834C12.2284 5.326 12.3424 5.964 12.3424 6.748C12.3424 7.528 12.2264 8.166 11.9944 8.662C11.7664 9.158 11.4444 9.524 11.0284 9.76C10.6164 9.996 10.1304 10.114 9.57038 10.114ZM9.57038 9.334C9.93838 9.334 10.2564 9.254 10.5244 9.094C10.7924 8.934 10.9984 8.668 11.1424 8.296C11.2904 7.92 11.3644 7.41 11.3644 6.766C11.3644 6.11 11.2904 5.594 11.1424 5.218C10.9984 4.838 10.7904 4.57 10.5184 4.414C10.2504 4.254 9.93438 4.174 9.57038 4.174C9.20238 4.174 8.88438 4.254 8.61638 4.414C8.34838 4.57 8.14038 4.836 7.99238 5.212C7.84838 5.584 7.77637 6.092 7.77637 6.736C7.77637 7.388 7.84838 7.904 7.99238 8.284C8.14038 8.66 8.34838 8.93 8.61638 9.094C8.88438 9.254 9.20238 9.334 9.57038 9.334ZM16.1283 10.114C15.4643 10.114 14.9483 9.944 14.5803 9.604C14.2123 9.26 14.0283 8.712 14.0283 7.96V3.49L14.1843 1.12H14.9883V7.804C14.9883 8.352 15.1003 8.736 15.3243 8.956C15.5523 9.176 15.8903 9.286 16.3383 9.286C16.4583 9.286 16.5823 9.278 16.7103 9.262C16.8383 9.242 16.9783 9.216 17.1303 9.184V9.994C16.9703 10.034 16.8063 10.064 16.6383 10.084C16.4703 10.104 16.3003 10.114 16.1283 10.114ZM12.8043 4.282V3.49H17.0343V4.282H12.8043ZM19.7466 10.108C19.1346 10.108 18.6526 9.95 18.3006 9.634C17.9526 9.318 17.7786 8.884 17.7786 8.332C17.7786 7.764 17.9646 7.322 18.3366 7.006C18.7126 6.686 19.3146 6.486 20.1426 6.406L21.8886 6.22L21.9786 6.856L20.2026 7.048C19.6866 7.1 19.3146 7.226 19.0866 7.426C18.8626 7.622 18.7506 7.894 18.7506 8.242C18.7506 8.606 18.8546 8.884 19.0626 9.076C19.2706 9.268 19.5806 9.364 19.9926 9.364C20.2766 9.364 20.5626 9.304 20.8506 9.184C21.1386 9.06 21.3966 8.854 21.6246 8.566V5.692C21.6246 5.292 21.5626 4.984 21.4386 4.768C21.3146 4.548 21.1286 4.394 20.8806 4.306C20.6326 4.218 20.3206 4.174 19.9446 4.174C19.7006 4.174 19.4226 4.196 19.1106 4.24C18.8026 4.284 18.4946 4.358 18.1866 4.462V3.676C18.4666 3.584 18.7746 3.514 19.1106 3.466C19.4506 3.414 19.7706 3.388 20.0706 3.388C20.6226 3.388 21.0826 3.46 21.4506 3.604C21.8226 3.748 22.1006 3.992 22.2846 4.336C22.4726 4.676 22.5666 5.142 22.5666 5.734V10H21.7626L21.6906 9.274H21.6306C21.4186 9.542 21.1466 9.748 20.8146 9.892C20.4866 10.036 20.1306 10.108 19.7466 10.108ZM24.3083 10V0.304H25.2683V10H24.3083ZM32.0254 10.114C31.6854 10.114 31.3414 10.088 30.9934 10.036C30.6454 9.988 30.3194 9.916 30.0154 9.82V0.304H30.9754V4.162H31.0294C31.2294 3.934 31.4814 3.748 31.7854 3.604C32.0934 3.46 32.4434 3.388 32.8354 3.388C33.2874 3.388 33.7014 3.494 34.0774 3.706C34.4534 3.914 34.7534 4.256 34.9774 4.732C35.2054 5.204 35.3194 5.834 35.3194 6.622C35.3194 7.798 35.0394 8.674 34.4794 9.25C33.9234 9.826 33.1054 10.114 32.0254 10.114ZM32.0974 9.328C32.8334 9.328 33.3914 9.124 33.7714 8.716C34.1514 8.308 34.3414 7.638 34.3414 6.706C34.3414 6.058 34.2634 5.554 34.1074 5.194C33.9514 4.834 33.7374 4.582 33.4654 4.438C33.1974 4.29 32.8934 4.216 32.5534 4.216C32.2574 4.216 31.9674 4.278 31.6834 4.402C31.4034 4.522 31.1674 4.712 30.9754 4.972V9.184C31.1194 9.224 31.2894 9.258 31.4854 9.286C31.6854 9.314 31.8894 9.328 32.0974 9.328ZM38.4028 10.108C37.7908 10.108 37.3088 9.95 36.9568 9.634C36.6088 9.318 36.4348 8.884 36.4348 8.332C36.4348 7.764 36.6208 7.322 36.9928 7.006C37.3688 6.686 37.9708 6.486 38.7988 6.406L40.5448 6.22L40.6348 6.856L38.8588 7.048C38.3428 7.1 37.9708 7.226 37.7428 7.426C37.5188 7.622 37.4068 7.894 37.4068 8.242C37.4068 8.606 37.5108 8.884 37.7188 9.076C37.9268 9.268 38.2368 9.364 38.6488 9.364C38.9328 9.364 39.2188 9.304 39.5068 9.184C39.7948 9.06 40.0528 8.854 40.2808 8.566V5.692C40.2808 5.292 40.2188 4.984 40.0948 4.768C39.9708 4.548 39.7848 4.394 39.5368 4.306C39.2888 4.218 38.9768 4.174 38.6008 4.174C38.3568 4.174 38.0788 4.196 37.7668 4.24C37.4588 4.284 37.1508 4.358 36.8428 4.462V3.676C37.1228 3.584 37.4308 3.514 37.7668 3.466C38.1068 3.414 38.4268 3.388 38.7268 3.388C39.2788 3.388 39.7388 3.46 40.1068 3.604C40.4788 3.748 40.7568 3.992 40.9408 4.336C41.1288 4.676 41.2228 5.142 41.2228 5.734V10H40.4188L40.3468 9.274H40.2868C40.0748 9.542 39.8028 9.748 39.4708 9.892C39.1428 10.036 38.7868 10.108 38.4028 10.108ZM42.9646 10V0.304H43.9246V10H42.9646ZM47.3559 10.108C46.7439 10.108 46.2619 9.95 45.9099 9.634C45.5619 9.318 45.3879 8.884 45.3879 8.332C45.3879 7.764 45.5739 7.322 45.9459 7.006C46.3219 6.686 46.9239 6.486 47.7519 6.406L49.4979 6.22L49.5879 6.856L47.8119 7.048C47.2959 7.1 46.9239 7.226 46.6959 7.426C46.4719 7.622 46.3599 7.894 46.3599 8.242C46.3599 8.606 46.4639 8.884 46.6719 9.076C46.8799 9.268 47.1899 9.364 47.6019 9.364C47.8859 9.364 48.1719 9.304 48.4599 9.184C48.7479 9.06 49.0059 8.854 49.2339 8.566V5.692C49.2339 5.292 49.1719 4.984 49.0479 4.768C48.9239 4.548 48.7379 4.394 48.4899 4.306C48.2419 4.218 47.9299 4.174 47.5539 4.174C47.3099 4.174 47.0319 4.196 46.7199 4.24C46.4119 4.284 46.1039 4.358 45.7959 4.462V3.676C46.0759 3.584 46.3839 3.514 46.7199 3.466C47.0599 3.414 47.3799 3.388 47.6799 3.388C48.2319 3.388 48.6919 3.46 49.0599 3.604C49.4319 3.748 49.7099 3.992 49.8939 4.336C50.0819 4.676 50.1759 5.142 50.1759 5.734V10H49.3719L49.2999 9.274H49.2399C49.0279 9.542 48.7559 9.748 48.4239 9.892C48.0959 10.036 47.7399 10.108 47.3559 10.108ZM51.9177 10V3.49H52.7277L52.7937 4.222H52.8597C53.1237 3.954 53.4317 3.748 53.7837 3.604C54.1357 3.46 54.5097 3.388 54.9057 3.388C55.3137 3.388 55.6737 3.464 55.9857 3.616C56.3017 3.764 56.5477 4.008 56.7237 4.348C56.9037 4.684 56.9937 5.134 56.9937 5.698V10H56.0397V5.74C56.0397 5.18 55.9157 4.792 55.6677 4.576C55.4237 4.356 55.0917 4.246 54.6717 4.246C54.4797 4.246 54.2757 4.274 54.0597 4.33C53.8437 4.386 53.6317 4.478 53.4237 4.606C53.2197 4.734 53.0377 4.904 52.8777 5.116V10H51.9177ZM61.276 10.114C60.66 10.114 60.138 9.998 59.71 9.766C59.282 9.53 58.956 9.166 58.732 8.674C58.508 8.178 58.396 7.536 58.396 6.748C58.396 5.96 58.516 5.32 58.756 4.828C59 4.332 59.354 3.968 59.818 3.736C60.282 3.504 60.85 3.388 61.522 3.388C61.75 3.388 61.978 3.402 62.206 3.43C62.434 3.458 62.652 3.5 62.86 3.556V4.372C62.648 4.316 62.438 4.274 62.23 4.246C62.026 4.218 61.824 4.204 61.624 4.204C61.124 4.204 60.708 4.286 60.376 4.45C60.044 4.614 59.796 4.88 59.632 5.248C59.472 5.616 59.392 6.108 59.392 6.724C59.392 7.356 59.468 7.86 59.62 8.236C59.772 8.612 59.998 8.884 60.298 9.052C60.602 9.216 60.974 9.298 61.414 9.298C61.626 9.298 61.848 9.278 62.08 9.238C62.312 9.194 62.572 9.126 62.86 9.034V9.844C62.604 9.936 62.342 10.004 62.074 10.048C61.81 10.092 61.544 10.114 61.276 10.114ZM66.6714 10.114C65.9954 10.114 65.4274 10 64.9674 9.772C64.5114 9.54 64.1674 9.178 63.9354 8.686C63.7034 8.19 63.5874 7.542 63.5874 6.742C63.5874 5.978 63.6934 5.348 63.9054 4.852C64.1214 4.356 64.4254 3.988 64.8174 3.748C65.2134 3.508 65.6814 3.388 66.2214 3.388C66.7534 3.388 67.2054 3.51 67.5774 3.754C67.9534 3.994 68.2394 4.364 68.4354 4.864C68.6314 5.36 68.7294 5.994 68.7294 6.766V7.06H64.1094V6.406H68.0214L67.8114 6.55C67.8114 5.942 67.7474 5.458 67.6194 5.098C67.4954 4.738 67.3134 4.48 67.0734 4.324C66.8374 4.164 66.5494 4.084 66.2094 4.084C65.8734 4.084 65.5814 4.162 65.3334 4.318C65.0854 4.474 64.8934 4.732 64.7574 5.092C64.6254 5.452 64.5594 5.938 64.5594 6.55V6.886C64.5594 7.486 64.6394 7.966 64.7994 8.326C64.9634 8.682 65.2094 8.94 65.5374 9.1C65.8654 9.256 66.2814 9.334 66.7854 9.334C67.0334 9.334 67.2894 9.312 67.5534 9.268C67.8214 9.22 68.1054 9.154 68.4054 9.07V9.856C68.0934 9.944 67.7954 10.008 67.5114 10.048C67.2314 10.092 66.9514 10.114 66.6714 10.114Z" fill="white"/>
<path d="M133.56 10V4.556L133.796 4.708L132.1 5.924V5.284L133.796 4.06H134.208V10H133.56ZM136.482 10V4.556L136.718 4.708L135.022 5.924V5.284L136.718 4.06H137.13V10H136.482ZM140.473 10V4.08H141.141L144.545 9.256H144.385V4.08H144.997V10H144.329L140.929 4.824H141.089V10H140.473ZM147.896 10.076C147.523 10.076 147.197 9.99867 146.92 9.844C146.643 9.68667 146.428 9.444 146.276 9.116C146.124 8.78533 146.048 8.35733 146.048 7.832C146.048 7.312 146.123 6.88667 146.272 6.556C146.424 6.22533 146.639 5.98267 146.916 5.828C147.193 5.67067 147.52 5.592 147.896 5.592C148.272 5.592 148.599 5.67067 148.876 5.828C149.153 5.98267 149.367 6.22533 149.516 6.556C149.668 6.884 149.744 7.30933 149.744 7.832C149.744 8.352 149.667 8.77733 149.512 9.108C149.36 9.43867 149.145 9.68267 148.868 9.84C148.593 9.99733 148.269 10.076 147.896 10.076ZM147.896 9.556C148.141 9.556 148.353 9.50267 148.532 9.396C148.711 9.28933 148.848 9.112 148.944 8.864C149.043 8.61333 149.092 8.27333 149.092 7.844C149.092 7.40667 149.043 7.06267 148.944 6.812C148.848 6.55867 148.709 6.38 148.528 6.276C148.349 6.16933 148.139 6.116 147.896 6.116C147.651 6.116 147.439 6.16933 147.26 6.276C147.081 6.38 146.943 6.55733 146.844 6.808C146.748 7.056 146.7 7.39467 146.7 7.824C146.7 8.25867 146.748 8.60267 146.844 8.856C146.943 9.10667 147.081 9.28667 147.26 9.396C147.439 9.50267 147.651 9.556 147.896 9.556ZM151.535 10L150.263 5.66H150.891L151.975 9.444H151.911L153.043 5.66H153.799L154.931 9.444H154.859L155.947 5.66H156.551L155.287 10H154.531L153.379 6.172H153.451L152.291 10H151.535ZM158.99 10V9.644L160.686 7.388C160.878 7.132 161.031 6.904 161.146 6.704C161.263 6.50133 161.347 6.31467 161.398 6.144C161.449 5.97333 161.474 5.804 161.474 5.636C161.474 5.252 161.369 4.976 161.158 4.808C160.947 4.64 160.63 4.556 160.206 4.556C159.974 4.556 159.75 4.576 159.534 4.616C159.321 4.656 159.117 4.71467 158.922 4.792V4.232C159.037 4.18667 159.166 4.14667 159.31 4.112C159.457 4.07733 159.611 4.05067 159.774 4.032C159.937 4.01333 160.098 4.004 160.258 4.004C160.855 4.004 161.315 4.13067 161.638 4.384C161.961 4.63467 162.122 5.03467 162.122 5.584C162.122 5.79467 162.093 6.00267 162.034 6.208C161.978 6.41067 161.885 6.628 161.754 6.86C161.623 7.08933 161.446 7.34933 161.222 7.64L159.718 9.624L159.666 9.444H162.442V10H158.99ZM165.144 10.076C164.731 10.076 164.371 9.976 164.064 9.776C163.76 9.576 163.524 9.25333 163.356 8.808C163.191 8.36267 163.108 7.77333 163.108 7.04C163.108 6.30667 163.191 5.71733 163.356 5.272C163.522 4.82667 163.756 4.504 164.06 4.304C164.364 4.104 164.726 4.004 165.144 4.004C165.566 4.004 165.928 4.104 166.232 4.304C166.536 4.504 166.771 4.82667 166.936 5.272C167.102 5.71733 167.184 6.30667 167.184 7.04C167.184 7.77333 167.1 8.36267 166.932 8.808C166.767 9.25333 166.531 9.576 166.224 9.776C165.92 9.976 165.56 10.076 165.144 10.076ZM165.148 9.516C165.428 9.516 165.672 9.44267 165.88 9.296C166.088 9.14933 166.248 8.89733 166.36 8.54C166.475 8.18 166.532 7.684 166.532 7.052C166.532 6.412 166.475 5.912 166.36 5.552C166.248 5.18933 166.088 4.93467 165.88 4.788C165.672 4.63867 165.428 4.564 165.148 4.564C164.866 4.564 164.62 4.63733 164.412 4.784C164.204 4.93067 164.043 5.184 163.928 5.544C163.816 5.90133 163.76 6.396 163.76 7.028C163.76 7.668 163.816 8.16933 163.928 8.532C164.043 8.892 164.204 9.14667 164.412 9.296C164.62 9.44267 164.866 9.516 165.148 9.516ZM169.091 10V4.556L169.327 4.708L167.631 5.924V5.284L169.327 4.06H169.739V10H169.091ZM171.133 10L173.345 4.432L173.533 4.636H170.501V4.08H173.977V4.436L171.809 10H171.133Z" fill="white"/>
<path d="M134.028 34V28.644H132.056V28.08H136.648V28.644H134.676V34H134.028ZM138.38 34.076C138.007 34.076 137.682 33.9987 137.404 33.844C137.127 33.6867 136.912 33.444 136.76 33.116C136.608 32.7853 136.532 32.3573 136.532 31.832C136.532 31.312 136.607 30.8867 136.756 30.556C136.908 30.2253 137.123 29.9827 137.4 29.828C137.678 29.6707 138.004 29.592 138.38 29.592C138.756 29.592 139.083 29.6707 139.36 29.828C139.638 29.9827 139.851 30.2253 140 30.556C140.152 30.884 140.228 31.3093 140.228 31.832C140.228 32.352 140.151 32.7773 139.996 33.108C139.844 33.4387 139.63 33.6827 139.352 33.84C139.078 33.9973 138.754 34.076 138.38 34.076ZM138.38 33.556C138.626 33.556 138.838 33.5027 139.016 33.396C139.195 33.2893 139.332 33.112 139.428 32.864C139.527 32.6133 139.576 32.2733 139.576 31.844C139.576 31.4067 139.527 31.0627 139.428 30.812C139.332 30.5587 139.194 30.38 139.012 30.276C138.834 30.1693 138.623 30.116 138.38 30.116C138.135 30.116 137.923 30.1693 137.744 30.276C137.566 30.38 137.427 30.5573 137.328 30.808C137.232 31.056 137.184 31.3947 137.184 31.824C137.184 32.2587 137.232 32.6027 137.328 32.856C137.427 33.1067 137.566 33.2867 137.744 33.396C137.923 33.5027 138.135 33.556 138.38 33.556ZM142.709 34.076C142.394 34.076 142.108 34.0053 141.849 33.864C141.59 33.72 141.384 33.4907 141.229 33.176C141.077 32.8613 141.001 32.4427 141.001 31.92C141.001 31.3973 141.084 30.964 141.249 30.62C141.417 30.276 141.664 30.0187 141.989 29.848C142.314 29.6773 142.714 29.592 143.189 29.592C143.312 29.592 143.434 29.5973 143.557 29.608C143.68 29.6187 143.793 29.632 143.897 29.648V27.536H144.537V34H143.993L143.949 33.532H143.905C143.777 33.6893 143.61 33.82 143.405 33.924C143.202 34.0253 142.97 34.076 142.709 34.076ZM142.853 33.524C143.048 33.524 143.238 33.4813 143.425 33.396C143.612 33.3107 143.769 33.1747 143.897 32.988V30.192C143.801 30.168 143.689 30.1493 143.561 30.136C143.433 30.1227 143.306 30.116 143.181 30.116C142.677 30.116 142.296 30.252 142.037 30.524C141.781 30.796 141.653 31.2427 141.653 31.864C141.653 32.2907 141.704 32.6253 141.805 32.868C141.909 33.108 142.05 33.2773 142.229 33.376C142.41 33.4747 142.618 33.524 142.853 33.524ZM146.821 34.072C146.413 34.072 146.091 33.9667 145.857 33.756C145.625 33.5453 145.509 33.256 145.509 32.888C145.509 32.5093 145.633 32.2147 145.881 32.004C146.131 31.7907 146.533 31.6573 147.085 31.604L148.249 31.48L148.309 31.904L147.125 32.032C146.781 32.0667 146.533 32.1507 146.381 32.284C146.231 32.4147 146.157 32.596 146.157 32.828C146.157 33.0707 146.226 33.256 146.365 33.384C146.503 33.512 146.71 33.576 146.985 33.576C147.174 33.576 147.365 33.536 147.557 33.456C147.749 33.3733 147.921 33.236 148.073 33.044V31.128C148.073 30.8613 148.031 30.656 147.949 30.512C147.866 30.3653 147.742 30.2627 147.577 30.204C147.411 30.1453 147.203 30.116 146.953 30.116C146.79 30.116 146.605 30.1307 146.397 30.16C146.191 30.1893 145.986 30.2387 145.781 30.308V29.784C145.967 29.7227 146.173 29.676 146.397 29.644C146.623 29.6093 146.837 29.592 147.037 29.592C147.405 29.592 147.711 29.64 147.957 29.736C148.205 29.832 148.39 29.9947 148.513 30.224C148.638 30.4507 148.701 30.7613 148.701 31.156V34H148.165L148.117 33.516H148.077C147.935 33.6947 147.754 33.832 147.533 33.928C147.314 34.024 147.077 34.072 146.821 34.072ZM150.478 35.76L151.146 34L151.35 33.54L152.782 29.66H153.426L151.118 35.76H150.478ZM150.962 34L149.318 29.66H150.002L151.574 34H150.962Z" fill="white"/>
<path d="M3.5712 38.1368C3.0816 38.1368 2.58 38.0984 2.0664 38.0216C1.5576 37.9496 1.0848 37.8464 0.648 37.712V35.8112C0.9504 35.9024 1.272 35.9816 1.6128 36.0488C1.9536 36.116 2.2896 36.1688 2.6208 36.2072C2.952 36.2408 3.2568 36.2576 3.5352 36.2576C4.0392 36.2576 4.44 36.2096 4.7376 36.1136C5.0352 36.0128 5.2488 35.8712 5.3784 35.6888C5.5128 35.5016 5.58 35.276 5.58 35.012C5.58 34.6808 5.4696 34.4216 5.2488 34.2344C5.0328 34.0472 4.6272 33.8768 4.032 33.7232L3.2256 33.5144C2.2944 33.2792 1.5888 32.9144 1.1088 32.42C0.6336 31.9208 0.396 31.2632 0.396 30.4472C0.396 29.4296 0.768 28.6352 1.512 28.064C2.256 27.4928 3.3864 27.2072 4.9032 27.2072C5.3544 27.2072 5.7912 27.2336 6.2136 27.2864C6.6408 27.3344 7.0224 27.404 7.3584 27.4952V29.396C7.0176 29.2952 6.6408 29.2184 6.228 29.1656C5.82 29.1128 5.4288 29.0864 5.0544 29.0864C4.464 29.0864 3.9984 29.1392 3.6576 29.2448C3.3216 29.3456 3.0816 29.4896 2.9376 29.6768C2.7936 29.864 2.7216 30.08 2.7216 30.3248C2.7216 30.6368 2.8176 30.8816 3.0096 31.0592C3.2016 31.2368 3.5616 31.3976 4.0896 31.5416L4.8888 31.7504C5.58 31.9184 6.1488 32.1416 6.5952 32.42C7.0416 32.6936 7.3704 33.032 7.5816 33.4352C7.7976 33.8336 7.9056 34.3064 7.9056 34.8536C7.9056 35.5352 7.7352 36.1232 7.3944 36.6176C7.0536 37.1072 6.5592 37.484 5.9112 37.748C5.268 38.0072 4.488 38.1368 3.5712 38.1368ZM3.0744 39.728V37.5968L5.2344 37.5752V39.728H3.0744ZM3.0744 27.6464V25.616H5.2344V27.6464H3.0744ZM9.22088 42.136V40.372L15.6529 28.24H18.7729L12.3769 40.384L12.0049 39.628H23.1889V42.136H9.22088ZM17.9209 46V39.628L18.2569 34.24H20.8129V46H17.9209ZM23.8841 46V44.272L28.8521 37.924C29.3881 37.244 29.8121 36.636 30.1241 36.1C30.4441 35.564 30.6721 35.072 30.8081 34.624C30.9521 34.176 31.0241 33.736 31.0241 33.304C31.0241 32.376 30.7481 31.7 30.1961 31.276C29.6521 30.844 28.7801 30.628 27.5801 30.628C26.8841 30.628 26.1961 30.692 25.5161 30.82C24.8441 30.94 24.2281 31.108 23.6681 31.324V28.684C24.0201 28.548 24.4321 28.432 24.9041 28.336C25.3761 28.232 25.8721 28.152 26.3921 28.096C26.9121 28.04 27.4161 28.012 27.9041 28.012C29.9601 28.012 31.5241 28.412 32.5961 29.212C33.6681 30.004 34.2041 31.268 34.2041 33.004C34.2041 33.62 34.1201 34.228 33.9521 34.828C33.7921 35.428 33.5241 36.064 33.1481 36.736C32.7721 37.4 32.2601 38.132 31.6121 38.932L27.4481 44.164L27.3281 43.324H35.0921V46H23.8841ZM39.0838 46.18C38.4518 46.18 37.9438 46.004 37.5598 45.652C37.1758 45.3 36.9838 44.82 36.9838 44.212C36.9838 43.604 37.1718 43.124 37.5478 42.772C37.9238 42.42 38.4358 42.244 39.0838 42.244C39.7238 42.244 40.2318 42.424 40.6078 42.784C40.9838 43.144 41.1718 43.62 41.1718 44.212C41.1718 44.804 40.9798 45.28 40.5958 45.64C40.2118 46 39.7078 46.18 39.0838 46.18ZM47.8783 46.228C47.0783 46.228 46.2943 46.168 45.5263 46.048C44.7663 45.928 44.0503 45.764 43.3783 45.556V43.108C44.0503 43.308 44.7703 43.468 45.5383 43.588C46.3143 43.708 47.0583 43.768 47.7703 43.768C49.1303 43.768 50.1263 43.524 50.7583 43.036C51.3983 42.548 51.7183 41.828 51.7183 40.876C51.7183 40.244 51.5583 39.72 51.2383 39.304C50.9183 38.88 50.3583 38.548 49.5583 38.308C48.7583 38.068 47.6423 37.908 46.2103 37.828L43.9663 37.696L44.5783 28.24H54.0343V30.748H46.1263L47.5303 29.38L47.0503 36.484L45.1303 35.296L47.3863 35.416C49.1383 35.52 50.5543 35.784 51.6343 36.208C52.7223 36.632 53.5143 37.224 54.0103 37.984C54.5143 38.744 54.7663 39.684 54.7663 40.804C54.7663 42.564 54.1823 43.908 53.0143 44.836C51.8543 45.764 50.1423 46.228 47.8783 46.228Z" fill="white"/>
<path d="M119 16L189 16" stroke="#6C26B1" stroke-linecap="round"/>
</svg>
