<svg width="240" height="158" viewBox="0 0 240 158" fill="none" xmlns="http://www.w3.org/2000/svg">
<g filter="url(#filter0_d_10_974)">
<rect width="240" height="158" rx="20" fill="white"/>
<g filter="url(#filter1_d_10_974)">
<path d="M240 101.529C234.091 100.793 227.519 101.051 223.012 104.056C213.253 110.562 203.494 109.839 195.181 97.5502C186.867 85.261 178.193 86.7068 164.096 91.4056C150 96.1044 147.108 85.984 137.349 69.7189C127.59 53.4538 124.699 63.9358 114.94 80.5623C105.181 97.1888 106.988 98.6345 85.6627 95.3815C64.3373 92.1285 65.0602 100.442 54.5783 106.225C44.0964 112.008 31.8072 101.526 21.6867 100.08C10.8056 98.5259 6.25295 102.369 0 104.943" stroke="#6C26B1" stroke-width="3"/>
</g>
<circle cx="128.675" cy="61.767" r="4.33735" fill="#6C26B1"/>
<path d="M24.428 29.114C23.66 29.114 22.988 28.956 22.412 28.64C21.836 28.32 21.388 27.824 21.068 27.152C20.752 26.48 20.594 25.616 20.594 24.56C20.594 23.504 20.754 22.64 21.074 21.968C21.394 21.296 21.84 20.802 22.412 20.486C22.988 20.166 23.66 20.006 24.428 20.006C25.2 20.006 25.874 20.166 26.45 20.486C27.026 20.806 27.472 21.302 27.788 21.974C28.108 22.642 28.268 23.504 28.268 24.56C28.268 25.616 28.108 26.48 27.788 27.152C27.468 27.82 27.02 28.314 26.444 28.634C25.868 28.954 25.196 29.114 24.428 29.114ZM24.428 28.052C24.944 28.052 25.39 27.94 25.766 27.716C26.146 27.488 26.438 27.122 26.642 26.618C26.85 26.11 26.954 25.436 26.954 24.596C26.954 23.728 26.85 23.038 26.642 22.526C26.434 22.01 26.14 21.638 25.76 21.41C25.384 21.182 24.94 21.068 24.428 21.068C23.916 21.068 23.47 21.18 23.09 21.404C22.714 21.628 22.422 21.994 22.214 22.502C22.006 23.006 21.902 23.68 21.902 24.524C21.902 25.392 22.006 26.084 22.214 26.6C22.422 27.116 22.714 27.488 23.09 27.716C23.47 27.94 23.916 28.052 24.428 28.052ZM31.7754 29.108C31.3634 29.108 30.9954 29.032 30.6714 28.88C30.3514 28.724 30.0994 28.472 29.9154 28.124C29.7314 27.776 29.6394 27.312 29.6394 26.732V22.472H30.8934V26.66C30.8934 27.168 31.0034 27.52 31.2234 27.716C31.4474 27.912 31.7374 28.01 32.0934 28.01C32.2694 28.01 32.4534 27.984 32.6454 27.932C32.8374 27.88 33.0234 27.798 33.2034 27.686C33.3834 27.574 33.5434 27.428 33.6834 27.248V22.472H34.9314V29H33.8874L33.8034 28.304H33.7374C33.4734 28.572 33.1734 28.774 32.8374 28.91C32.5014 29.042 32.1474 29.108 31.7754 29.108ZM39.3 29.114C38.596 29.114 38.05 28.936 37.662 28.58C37.278 28.22 37.086 27.65 37.086 26.87V22.472L37.302 20.12H38.34V26.666C38.34 27.182 38.444 27.544 38.652 27.752C38.86 27.956 39.176 28.058 39.6 28.058C39.72 28.058 39.84 28.05 39.96 28.034C40.08 28.018 40.214 27.994 40.362 27.962V28.994C40.198 29.03 40.024 29.058 39.84 29.078C39.66 29.102 39.48 29.114 39.3 29.114ZM35.91 23.486V22.472H40.284V23.486H35.91ZM43.9898 29.12C43.3378 29.12 42.7838 29 42.3278 28.76C41.8758 28.52 41.5318 28.152 41.2958 27.656C41.0598 27.16 40.9418 26.522 40.9418 25.742C40.9418 24.958 41.0678 24.318 41.3198 23.822C41.5758 23.326 41.9478 22.96 42.4358 22.724C42.9238 22.488 43.5178 22.37 44.2178 22.37C44.4578 22.37 44.6938 22.384 44.9258 22.412C45.1578 22.44 45.3798 22.48 45.5918 22.532V23.564C45.3798 23.512 45.1718 23.474 44.9678 23.45C44.7678 23.422 44.5678 23.408 44.3678 23.408C43.8878 23.408 43.4898 23.484 43.1738 23.636C42.8578 23.788 42.6218 24.034 42.4658 24.374C42.3138 24.71 42.2378 25.16 42.2378 25.724C42.2378 26.3 42.3098 26.76 42.4538 27.104C42.6018 27.448 42.8198 27.696 43.1078 27.848C43.3958 28 43.7518 28.076 44.1758 28.076C44.3838 28.076 44.5998 28.056 44.8238 28.016C45.0518 27.976 45.3078 27.914 45.5918 27.83V28.856C45.3438 28.94 45.0838 29.004 44.8118 29.048C44.5398 29.096 44.2658 29.12 43.9898 29.12ZM49.1895 29.12C48.6015 29.12 48.0895 29 47.6535 28.76C47.2215 28.52 46.8855 28.152 46.6455 27.656C46.4055 27.16 46.2855 26.524 46.2855 25.748C46.2855 24.968 46.4035 24.33 46.6395 23.834C46.8755 23.338 47.2095 22.97 47.6415 22.73C48.0775 22.49 48.5935 22.37 49.1895 22.37C49.7855 22.37 50.2995 22.49 50.7315 22.73C51.1675 22.97 51.5035 23.338 51.7395 23.834C51.9755 24.33 52.0935 24.966 52.0935 25.742C52.0935 26.514 51.9735 27.15 51.7335 27.65C51.4975 28.15 51.1615 28.52 50.7255 28.76C50.2895 29 49.7775 29.12 49.1895 29.12ZM49.1895 28.13C49.5255 28.13 49.8155 28.058 50.0595 27.914C50.3035 27.766 50.4915 27.52 50.6235 27.176C50.7555 26.828 50.8215 26.354 50.8215 25.754C50.8215 25.146 50.7555 24.668 50.6235 24.32C50.4915 23.972 50.3035 23.726 50.0595 23.582C49.8155 23.434 49.5255 23.36 49.1895 23.36C48.8535 23.36 48.5635 23.432 48.3195 23.576C48.0755 23.72 47.8875 23.966 47.7555 24.314C47.6235 24.658 47.5575 25.13 47.5575 25.73C47.5575 26.338 47.6215 26.816 47.7495 27.164C47.8815 27.512 48.0695 27.76 48.3135 27.908C48.5615 28.056 48.8535 28.13 49.1895 28.13ZM53.4593 29V22.472H54.5033L54.5933 23.192H54.6653C54.9093 22.92 55.1893 22.716 55.5053 22.58C55.8253 22.44 56.1673 22.37 56.5313 22.37C56.9033 22.37 57.2353 22.448 57.5273 22.604C57.8193 22.756 58.0493 23.004 58.2173 23.348C58.3853 23.692 58.4693 24.152 58.4693 24.728V29H57.2393V24.824C57.2393 24.312 57.1393 23.958 56.9393 23.762C56.7433 23.566 56.4813 23.468 56.1533 23.468C55.9893 23.468 55.8193 23.496 55.6433 23.552C55.4673 23.604 55.2993 23.688 55.1393 23.804C54.9793 23.92 54.8373 24.072 54.7133 24.26V29H53.4593ZM60.9533 29V24.824C60.9533 24.312 60.8493 23.958 60.6413 23.762C60.4333 23.566 60.1653 23.468 59.8373 23.468C59.6693 23.468 59.4913 23.496 59.3033 23.552C59.1193 23.608 58.9393 23.702 58.7633 23.834C58.5913 23.966 58.4433 24.144 58.3193 24.368L58.0313 23.45C58.3433 23.054 58.6873 22.776 59.0633 22.616C59.4433 22.452 59.8133 22.37 60.1733 22.37C60.5653 22.37 60.9133 22.448 61.2173 22.604C61.5253 22.76 61.7653 23.014 61.9373 23.366C62.1133 23.714 62.2013 24.18 62.2013 24.764V29H60.9533ZM66.7464 29.12C66.0264 29.12 65.4244 29.004 64.9404 28.772C64.4604 28.54 64.1004 28.176 63.8604 27.68C63.6204 27.18 63.5004 26.532 63.5004 25.736C63.5004 24.984 63.6104 24.36 63.8304 23.864C64.0544 23.364 64.3724 22.99 64.7844 22.742C65.1964 22.494 65.6884 22.37 66.2604 22.37C66.8204 22.37 67.2944 22.494 67.6824 22.742C68.0744 22.99 68.3704 23.366 68.5704 23.87C68.7744 24.37 68.8764 25.002 68.8764 25.766V26.126H64.1964V25.334H67.9344L67.6944 25.466C67.6944 24.914 67.6384 24.474 67.5264 24.146C67.4144 23.818 67.2504 23.584 67.0344 23.444C66.8184 23.3 66.5564 23.228 66.2484 23.228C65.9404 23.228 65.6744 23.298 65.4504 23.438C65.2304 23.578 65.0604 23.812 64.9404 24.14C64.8204 24.468 64.7604 24.91 64.7604 25.466V25.934C64.7604 26.474 64.8344 26.906 64.9824 27.23C65.1304 27.55 65.3624 27.78 65.6784 27.92C65.9944 28.06 66.4044 28.13 66.9084 28.13C67.1564 28.13 67.4164 28.11 67.6884 28.07C67.9604 28.026 68.2444 27.964 68.5404 27.884V28.868C68.2164 28.956 67.9084 29.02 67.6164 29.06C67.3244 29.1 67.0344 29.12 66.7464 29.12ZM75.1156 29.114C74.7356 29.114 74.3476 29.082 73.9516 29.018C73.5596 28.958 73.1876 28.868 72.8356 28.748V27.68C73.0836 27.764 73.3396 27.834 73.6036 27.89C73.8676 27.946 74.1276 27.988 74.3836 28.016C74.6396 28.044 74.8856 28.058 75.1216 28.058C75.8136 28.058 76.3196 27.934 76.6396 27.686C76.9596 27.438 77.1196 27.08 77.1196 26.612C77.1196 26.212 76.9996 25.906 76.7596 25.694C76.5196 25.478 76.1016 25.294 75.5056 25.142L74.9656 25.004C74.2056 24.808 73.6336 24.512 73.2496 24.116C72.8656 23.716 72.6736 23.19 72.6736 22.538C72.6736 21.75 72.9516 21.132 73.5076 20.684C74.0636 20.232 74.8936 20.006 75.9976 20.006C76.3616 20.006 76.7156 20.03 77.0596 20.078C77.4036 20.122 77.7136 20.186 77.9896 20.27V21.338C77.6936 21.246 77.3796 21.178 77.0476 21.134C76.7196 21.086 76.3876 21.062 76.0516 21.062C75.5556 21.062 75.1536 21.118 74.8456 21.23C74.5376 21.342 74.3116 21.504 74.1676 21.716C74.0236 21.928 73.9516 22.18 73.9516 22.472C73.9516 22.852 74.0596 23.148 74.2756 23.36C74.4956 23.572 74.8816 23.752 75.4336 23.9L75.9736 24.038C76.5296 24.178 76.9856 24.36 77.3416 24.584C77.7016 24.804 77.9676 25.074 78.1396 25.394C78.3116 25.714 78.3976 26.092 78.3976 26.528C78.3976 27.072 78.2676 27.538 78.0076 27.926C77.7516 28.31 77.3776 28.604 76.8856 28.808C76.3976 29.012 75.8076 29.114 75.1156 29.114ZM82.2024 29.114C81.4984 29.114 80.9524 28.936 80.5644 28.58C80.1804 28.22 79.9884 27.65 79.9884 26.87V22.472L80.2044 20.12H81.2424V26.666C81.2424 27.182 81.3464 27.544 81.5544 27.752C81.7624 27.956 82.0784 28.058 82.5024 28.058C82.6224 28.058 82.7424 28.05 82.8624 28.034C82.9824 28.018 83.1164 27.994 83.2644 27.962V28.994C83.1004 29.03 82.9264 29.058 82.7424 29.078C82.5624 29.102 82.3824 29.114 82.2024 29.114ZM78.8124 23.486V22.472H83.1864V23.486H78.8124ZM85.9184 29.108C85.2864 29.108 84.7904 28.946 84.4304 28.622C84.0744 28.298 83.8964 27.856 83.8964 27.296C83.8964 26.716 84.0924 26.262 84.4844 25.934C84.8764 25.606 85.5044 25.404 86.3684 25.328L88.0064 25.166L88.1324 25.928L86.4764 26.096C86.0044 26.144 85.6644 26.258 85.4564 26.438C85.2524 26.614 85.1504 26.862 85.1504 27.182C85.1504 27.506 85.2444 27.756 85.4324 27.932C85.6244 28.104 85.9044 28.19 86.2724 28.19C86.5284 28.19 86.7844 28.138 87.0404 28.034C87.2964 27.93 87.5264 27.756 87.7304 27.512V24.776C87.7304 24.408 87.6724 24.122 87.5564 23.918C87.4404 23.714 87.2624 23.57 87.0224 23.486C86.7824 23.402 86.4764 23.36 86.1044 23.36C85.8564 23.36 85.5764 23.382 85.2644 23.426C84.9524 23.47 84.6444 23.542 84.3404 23.642V22.658C84.6324 22.562 84.9544 22.49 85.3064 22.442C85.6584 22.394 85.9884 22.37 86.2964 22.37C86.8924 22.37 87.3864 22.448 87.7784 22.604C88.1744 22.756 88.4684 23.012 88.6604 23.372C88.8564 23.732 88.9544 24.224 88.9544 24.848V29H87.9164L87.8264 28.298H87.7544C87.5464 28.566 87.2804 28.768 86.9564 28.904C86.6364 29.04 86.2904 29.108 85.9184 29.108ZM93.2063 29.114C92.5023 29.114 91.9563 28.936 91.5683 28.58C91.1843 28.22 90.9923 27.65 90.9923 26.87V22.472L91.2083 20.12H92.2463V26.666C92.2463 27.182 92.3503 27.544 92.5583 27.752C92.7663 27.956 93.0823 28.058 93.5063 28.058C93.6263 28.058 93.7463 28.05 93.8663 28.034C93.9863 28.018 94.1203 27.994 94.2683 27.962V28.994C94.1043 29.03 93.9303 29.058 93.7463 29.078C93.5663 29.102 93.3863 29.114 93.2063 29.114ZM89.8163 23.486V22.472H94.1903V23.486H89.8163ZM96.7757 29.12C96.4357 29.12 96.1077 29.096 95.7917 29.048C95.4757 29.004 95.1717 28.938 94.8797 28.85V27.884C95.1997 27.976 95.5137 28.046 95.8217 28.094C96.1337 28.138 96.4497 28.16 96.7697 28.16C97.2937 28.16 97.6697 28.076 97.8977 27.908C98.1297 27.74 98.2457 27.504 98.2457 27.2C98.2457 26.944 98.1797 26.75 98.0477 26.618C97.9157 26.482 97.6897 26.38 97.3697 26.312L96.4337 26.126C95.8297 26.002 95.3957 25.792 95.1317 25.496C94.8717 25.196 94.7417 24.804 94.7417 24.32C94.7417 23.748 94.9657 23.28 95.4137 22.916C95.8657 22.552 96.5557 22.37 97.4837 22.37C97.7717 22.37 98.0517 22.388 98.3237 22.424C98.5957 22.456 98.8497 22.504 99.0857 22.568V23.534C98.8257 23.462 98.5677 23.41 98.3117 23.378C98.0557 23.346 97.7897 23.33 97.5137 23.33C97.1137 23.33 96.7977 23.374 96.5657 23.462C96.3377 23.546 96.1737 23.66 96.0737 23.804C95.9777 23.948 95.9297 24.11 95.9297 24.29C95.9297 24.51 95.9917 24.692 96.1157 24.836C96.2437 24.98 96.4657 25.088 96.7817 25.16L97.7177 25.34C98.3137 25.46 98.7477 25.664 99.0197 25.952C99.2957 26.236 99.4337 26.634 99.4337 27.146C99.4337 27.754 99.2057 28.236 98.7497 28.592C98.2977 28.944 97.6397 29.12 96.7757 29.12Z" fill="#3D2E87"/>
<path d="M20.845 46V38.6H21.655V45.295H25.3V46H20.845ZM27.4516 46.09C26.9416 46.09 26.5399 45.9583 26.2466 45.695C25.9566 45.4317 25.8116 45.07 25.8116 44.61C25.8116 44.1367 25.9666 43.7683 26.2766 43.505C26.5899 43.2383 27.0916 43.0717 27.7816 43.005L29.2366 42.85L29.3116 43.38L27.8316 43.54C27.4016 43.5833 27.0916 43.6883 26.9016 43.855C26.7149 44.0183 26.6216 44.245 26.6216 44.535C26.6216 44.8383 26.7082 45.07 26.8816 45.23C27.0549 45.39 27.3132 45.47 27.6566 45.47C27.8932 45.47 28.1316 45.42 28.3716 45.32C28.6116 45.2167 28.8266 45.045 29.0166 44.805V42.41C29.0166 42.0767 28.9649 41.82 28.8616 41.64C28.7582 41.4567 28.6032 41.3283 28.3966 41.255C28.1899 41.1817 27.9299 41.145 27.6166 41.145C27.4132 41.145 27.1816 41.1633 26.9216 41.2C26.6649 41.2367 26.4082 41.2983 26.1516 41.385V40.73C26.3849 40.6533 26.6416 40.595 26.9216 40.555C27.2049 40.5117 27.4716 40.49 27.7216 40.49C28.1816 40.49 28.5649 40.55 28.8716 40.67C29.1816 40.79 29.4132 40.9933 29.5666 41.28C29.7232 41.5633 29.8016 41.9517 29.8016 42.445V46H29.1316L29.0716 45.395H29.0216C28.8449 45.6183 28.6182 45.79 28.3416 45.91C28.0682 46.03 27.7716 46.09 27.4516 46.09ZM32.548 46.095C32.2747 46.095 32.013 46.0767 31.763 46.04C31.5164 46.0033 31.2764 45.9483 31.043 45.875V45.235C31.3097 45.315 31.5647 45.3733 31.808 45.41C32.0514 45.4433 32.298 45.46 32.548 45.46C33.018 45.46 33.358 45.38 33.568 45.22C33.7814 45.06 33.888 44.835 33.888 44.545C33.888 44.2983 33.8247 44.11 33.698 43.98C33.5714 43.8467 33.3564 43.7483 33.053 43.685L32.318 43.535C31.8247 43.4283 31.4714 43.2533 31.258 43.01C31.048 42.7633 30.943 42.4467 30.943 42.06C30.943 41.6033 31.118 41.2283 31.468 40.935C31.8214 40.6383 32.363 40.49 33.093 40.49C33.3264 40.49 33.548 40.5033 33.758 40.53C33.9714 40.5567 34.1764 40.5967 34.373 40.65V41.295C34.153 41.235 33.9414 41.1917 33.738 41.165C33.538 41.1383 33.328 41.125 33.108 41.125C32.7647 41.125 32.4897 41.1667 32.283 41.25C32.0797 41.33 31.933 41.44 31.843 41.58C31.753 41.7167 31.708 41.87 31.708 42.04C31.708 42.2533 31.768 42.43 31.888 42.57C32.008 42.71 32.218 42.8133 32.518 42.88L33.253 43.03C33.753 43.1333 34.1114 43.3033 34.328 43.54C34.548 43.7767 34.658 44.0983 34.658 44.505C34.658 44.995 34.478 45.3833 34.118 45.67C33.7614 45.9533 33.238 46.095 32.548 46.095ZM37.7664 46.095C37.2131 46.095 36.7831 45.9533 36.4764 45.67C36.1697 45.3833 36.0164 44.9267 36.0164 44.3V40.575L36.1464 38.6H36.8164V44.17C36.8164 44.6267 36.9097 44.9467 37.0964 45.13C37.2864 45.3133 37.5681 45.405 37.9414 45.405C38.0414 45.405 38.1447 45.3983 38.2514 45.385C38.3581 45.3683 38.4747 45.3467 38.6014 45.32V45.995C38.4681 46.0283 38.3314 46.0533 38.1914 46.07C38.0514 46.0867 37.9097 46.095 37.7664 46.095ZM34.9964 41.235V40.575H38.5214V41.235H34.9964ZM41.878 46V40.575H42.553L42.608 41.19H42.663C42.8697 40.9567 43.1064 40.7817 43.373 40.665C43.643 40.5483 43.9297 40.49 44.233 40.49C44.533 40.49 44.8014 40.5517 45.038 40.675C45.2747 40.7983 45.4614 41 45.598 41.28C45.7347 41.5567 45.803 41.9283 45.803 42.395V46H45.013V42.445C45.013 41.9783 44.9214 41.655 44.738 41.475C44.5547 41.295 44.313 41.205 44.013 41.205C43.863 41.205 43.7064 41.23 43.543 41.28C43.383 41.33 43.228 41.41 43.078 41.52C42.928 41.6267 42.7947 41.77 42.678 41.95V46H41.878ZM48.103 46V42.445C48.103 41.9783 48.0064 41.655 47.813 41.475C47.623 41.295 47.378 41.205 47.078 41.205C46.9247 41.205 46.7614 41.2317 46.588 41.285C46.418 41.335 46.2514 41.4233 46.088 41.55C45.928 41.6733 45.788 41.8433 45.668 42.06L45.468 41.415C45.7314 41.0717 46.023 40.8317 46.343 40.695C46.663 40.5583 46.9714 40.49 47.268 40.49C47.5814 40.49 47.8614 40.5533 48.108 40.68C48.3547 40.8033 48.548 41.005 48.688 41.285C48.8314 41.565 48.903 41.94 48.903 42.41V46H48.103ZM52.3796 46.095C51.9129 46.095 51.5063 45.9983 51.1596 45.805C50.8129 45.6083 50.5446 45.305 50.3546 44.895C50.1646 44.4817 50.0696 43.9467 50.0696 43.29C50.0696 42.64 50.1629 42.1083 50.3496 41.695C50.5396 41.2817 50.8079 40.9783 51.1546 40.785C51.5013 40.5883 51.9096 40.49 52.3796 40.49C52.8496 40.49 53.2579 40.5883 53.6046 40.785C53.9513 40.9783 54.2179 41.2817 54.4046 41.695C54.5946 42.105 54.6896 42.6367 54.6896 43.29C54.6896 43.94 54.5929 44.4717 54.3996 44.885C54.2096 45.2983 53.9413 45.6033 53.5946 45.8C53.2513 45.9967 52.8463 46.095 52.3796 46.095ZM52.3796 45.445C52.6863 45.445 52.9513 45.3783 53.1746 45.245C53.3979 45.1117 53.5696 44.89 53.6896 44.58C53.8129 44.2667 53.8746 43.8417 53.8746 43.305C53.8746 42.7583 53.8129 42.3283 53.6896 42.015C53.5696 41.6983 53.3963 41.475 53.1696 41.345C52.9463 41.2117 52.6829 41.145 52.3796 41.145C52.0729 41.145 51.8079 41.2117 51.5846 41.345C51.3613 41.475 51.1879 41.6967 51.0646 42.01C50.9446 42.32 50.8846 42.7433 50.8846 43.28C50.8846 43.8233 50.9446 44.2533 51.0646 44.57C51.1879 44.8833 51.3613 45.1083 51.5846 45.245C51.8079 45.3783 52.0729 45.445 52.3796 45.445ZM55.9113 46V40.575H56.5863L56.6413 41.185H56.6963C56.9163 40.9617 57.1729 40.79 57.4663 40.67C57.7596 40.55 58.0713 40.49 58.4013 40.49C58.7413 40.49 59.0413 40.5533 59.3013 40.68C59.5646 40.8033 59.7696 41.0067 59.9163 41.29C60.0663 41.57 60.1413 41.945 60.1413 42.415V46H59.3463V42.45C59.3463 41.9833 59.2429 41.66 59.0363 41.48C58.8329 41.2967 58.5563 41.205 58.2063 41.205C58.0463 41.205 57.8763 41.2283 57.6963 41.275C57.5163 41.3217 57.3396 41.3983 57.1663 41.505C56.9963 41.6117 56.8446 41.7533 56.7113 41.93V46H55.9113ZM63.6648 46.095C63.1115 46.095 62.6815 45.9533 62.3748 45.67C62.0682 45.3833 61.9148 44.9267 61.9148 44.3V40.575L62.0448 38.6H62.7148V44.17C62.7148 44.6267 62.8082 44.9467 62.9948 45.13C63.1848 45.3133 63.4665 45.405 63.8398 45.405C63.9398 45.405 64.0432 45.3983 64.1498 45.385C64.2565 45.3683 64.3732 45.3467 64.4998 45.32V45.995C64.3665 46.0283 64.2298 46.0533 64.0898 46.07C63.9498 46.0867 63.8082 46.095 63.6648 46.095ZM60.8948 41.235V40.575H64.4198V41.235H60.8948ZM65.3546 46V37.92H66.1546V41.18H66.1996C66.4196 40.95 66.6729 40.7783 66.9596 40.665C67.2463 40.5483 67.5513 40.49 67.8746 40.49C68.2046 40.49 68.4979 40.5533 68.7546 40.68C69.0146 40.8033 69.2179 41.005 69.3646 41.285C69.5113 41.565 69.5846 41.94 69.5846 42.41V46H68.7896V42.445C68.7896 41.9783 68.6846 41.6567 68.4746 41.48C68.2679 41.3 67.9929 41.21 67.6496 41.21C67.4829 41.21 67.3096 41.235 67.1296 41.285C66.9496 41.3317 66.7746 41.4083 66.6046 41.515C66.4346 41.6183 66.2846 41.7567 66.1546 41.93V46H65.3546Z" fill="#BDBDBD"/>
<path fill-rule="evenodd" clip-rule="evenodd" d="M206.75 36C206.75 36.9795 206.124 37.8135 205.25 38.1225L205.25 39C205.25 39.1989 205.171 39.3897 205.03 39.5303C204.89 39.671 204.699 39.75 204.5 39.75C204.301 39.75 204.11 39.671 203.97 39.5303C203.829 39.3897 203.75 39.1989 203.75 39L203.75 38.1225C203.311 37.9675 202.931 37.6802 202.662 37.3001C202.393 36.9199 202.248 36.4657 202.248 36C202.248 35.5343 202.393 35.0801 202.662 34.6999C202.931 34.3198 203.311 34.0325 203.75 33.8775L203.75 27C203.75 26.8011 203.829 26.6103 203.97 26.4697C204.11 26.329 204.301 26.25 204.5 26.25C204.699 26.25 204.89 26.329 205.03 26.4697C205.171 26.6103 205.25 26.8011 205.25 27L205.25 33.8775C205.689 34.0328 206.069 34.3202 206.337 34.7004C206.606 35.0805 206.75 35.5345 206.75 36ZM205.25 36C205.25 35.8011 205.171 35.6103 205.03 35.4697C204.89 35.329 204.699 35.25 204.5 35.25C204.301 35.25 204.11 35.329 203.97 35.4697C203.829 35.6103 203.75 35.8011 203.75 36C203.75 36.1989 203.829 36.3897 203.97 36.5303C204.11 36.671 204.301 36.75 204.5 36.75C204.699 36.75 204.89 36.671 205.03 36.5303C205.171 36.3897 205.25 36.1989 205.25 36ZM211.25 30C211.25 30.4417 211.12 30.8737 210.876 31.2421C210.632 31.6105 210.286 31.8989 209.879 32.0715L209.75 32.1218L209.75 39C209.75 39.1912 209.677 39.375 209.545 39.514C209.414 39.653 209.235 39.7367 209.044 39.7479C208.853 39.7591 208.665 39.697 208.519 39.5743C208.372 39.4516 208.278 39.2776 208.255 39.0878L208.25 39L208.25 32.1225C207.822 31.9713 207.45 31.6944 207.183 31.328C206.915 30.9617 206.764 30.5231 206.75 30.0696C206.737 29.6162 206.86 29.1691 207.104 28.787C207.349 28.405 207.703 28.1057 208.121 27.9285L208.25 27.8775L208.25 27C208.25 26.8088 208.323 26.625 208.455 26.486C208.586 26.347 208.765 26.2633 208.956 26.2521C209.147 26.2409 209.335 26.303 209.481 26.4257C209.628 26.5484 209.722 26.7224 209.745 26.9122L209.75 27L209.75 27.8775C210.189 28.0328 210.569 28.3202 210.837 28.7004C211.106 29.0805 211.25 29.5345 211.25 30ZM209.75 30C209.75 29.8011 209.671 29.6103 209.53 29.4697C209.39 29.329 209.199 29.25 209 29.25C208.801 29.25 208.61 29.329 208.47 29.4697C208.329 29.6103 208.25 29.8011 208.25 30C208.25 30.1989 208.329 30.3897 208.47 30.5303C208.61 30.671 208.801 30.75 209 30.75C209.199 30.75 209.39 30.671 209.53 30.5303C209.671 30.3897 209.75 30.1989 209.75 30ZM215.75 36C215.75 36.9795 215.124 37.8135 214.25 38.1225L214.25 39C214.25 39.1989 214.171 39.3897 214.03 39.5303C213.89 39.671 213.699 39.75 213.5 39.75C213.301 39.75 213.11 39.671 212.97 39.5303C212.829 39.3897 212.75 39.1989 212.75 39L212.75 38.1225C212.311 37.9675 211.931 37.6802 211.662 37.3001C211.393 36.9199 211.248 36.4657 211.248 36C211.248 35.5343 211.393 35.0801 211.662 34.6999C211.931 34.3198 212.311 34.0325 212.75 33.8775L212.75 27C212.75 26.8011 212.829 26.6103 212.97 26.4697C213.11 26.329 213.301 26.25 213.5 26.25C213.699 26.25 213.89 26.329 214.03 26.4697C214.171 26.6103 214.25 26.8011 214.25 27L214.25 33.8775C214.689 34.0328 215.069 34.3202 215.337 34.7004C215.606 35.0805 215.75 35.5345 215.75 36ZM214.25 36C214.25 35.8011 214.171 35.6103 214.03 35.4697C213.89 35.329 213.699 35.25 213.5 35.25C213.301 35.25 213.11 35.329 212.97 35.4697C212.829 35.6103 212.75 35.8011 212.75 36C212.75 36.1989 212.829 36.3897 212.97 36.5303C213.11 36.671 213.301 36.75 213.5 36.75C213.699 36.75 213.89 36.671 214.03 36.5303C214.171 36.3897 214.25 36.1989 214.25 36Z" fill="#6F29B2"/>
<circle cx="23" cy="132" r="3" fill="#7A3AB8"/>
<path d="M35.4432 133.096C35.1008 133.096 34.752 133.069 34.3968 133.014C34.0448 132.963 33.72 132.893 33.4224 132.803V131.32C33.6208 131.384 33.8384 131.438 34.0752 131.483C34.312 131.525 34.5456 131.558 34.776 131.584C35.0096 131.61 35.2208 131.622 35.4096 131.622C35.7232 131.622 35.968 131.597 36.144 131.546C36.3232 131.491 36.4496 131.414 36.5232 131.315C36.5968 131.216 36.6336 131.099 36.6336 130.965C36.6336 130.795 36.5728 130.661 36.4512 130.562C36.3328 130.459 36.0944 130.362 35.736 130.269L35.1504 130.12C34.52 129.963 34.0416 129.715 33.7152 129.376C33.392 129.037 33.2304 128.59 33.2304 128.037C33.2304 127.333 33.4912 126.784 34.0128 126.39C34.5344 125.997 35.3312 125.8 36.4032 125.8C36.7136 125.8 37.0128 125.818 37.3008 125.853C37.592 125.888 37.8512 125.933 38.0784 125.987V127.47C37.8576 127.41 37.6064 127.362 37.3248 127.326C37.0432 127.291 36.7776 127.274 36.528 127.274C36.144 127.274 35.8448 127.302 35.6304 127.36C35.4192 127.418 35.2704 127.498 35.184 127.6C35.1008 127.699 35.0592 127.811 35.0592 127.936C35.0592 128.093 35.1104 128.219 35.2128 128.315C35.3184 128.408 35.5232 128.496 35.8272 128.579L36.4176 128.728C36.8848 128.843 37.2688 128.995 37.5696 129.184C37.8736 129.37 38.0976 129.6 38.2416 129.875C38.3888 130.147 38.4624 130.469 38.4624 130.84C38.4624 131.304 38.3424 131.706 38.1024 132.045C37.8656 132.381 37.5216 132.64 37.0704 132.822C36.6224 133.005 36.08 133.096 35.4432 133.096ZM34.9968 134.152V132.669L36.696 132.664V134.152H34.9968ZM34.9968 126.146V124.744H36.696V126.146H34.9968ZM46.4339 138.152C45.8845 138.152 45.3485 138.117 44.8259 138.048C44.3085 137.979 43.8179 137.877 43.3539 137.744V135.8C43.8072 135.928 44.2979 136.029 44.8259 136.104C45.3539 136.179 45.8552 136.216 46.3299 136.216C47.1832 136.216 47.8045 136.075 48.1939 135.792C48.5832 135.509 48.7779 135.096 48.7779 134.552C48.7779 134.029 48.5912 133.629 48.2179 133.352C47.8499 133.069 47.2259 132.928 46.3459 132.928H44.6099V130.96H45.9539C46.8072 130.96 47.4179 130.824 47.7859 130.552C48.1592 130.28 48.3459 129.899 48.3459 129.408C48.3459 128.928 48.1752 128.565 47.8339 128.32C47.4979 128.069 46.9645 127.944 46.2339 127.944C45.7912 127.944 45.3352 127.981 44.8659 128.056C44.4019 128.131 43.9672 128.24 43.5619 128.384V126.44C43.8179 126.355 44.1112 126.28 44.4419 126.216C44.7725 126.147 45.1165 126.096 45.4739 126.064C45.8312 126.027 46.1779 126.008 46.5139 126.008C47.9485 126.008 49.0259 126.285 49.7459 126.84C50.4712 127.389 50.8339 128.168 50.8339 129.176C50.8339 129.891 50.6285 130.493 50.2179 130.984C49.8125 131.475 49.2499 131.797 48.5299 131.952L48.5379 131.824C49.3965 131.952 50.0579 132.261 50.5219 132.752C50.9859 133.237 51.2179 133.891 51.2179 134.712C51.2179 135.427 51.0419 136.043 50.6899 136.56C50.3432 137.072 49.8152 137.467 49.1059 137.744C48.3965 138.016 47.5059 138.152 46.4339 138.152ZM53.9526 138.136C53.4513 138.136 53.0486 137.997 52.7446 137.72C52.446 137.443 52.2966 137.067 52.2966 136.592C52.2966 136.112 52.4433 135.733 52.7366 135.456C53.0353 135.179 53.4406 135.04 53.9526 135.04C54.4646 135.04 54.8673 135.181 55.1606 135.464C55.4593 135.747 55.6086 136.123 55.6086 136.592C55.6086 137.056 55.4566 137.429 55.1526 137.712C54.854 137.995 54.454 138.136 53.9526 138.136ZM60.0092 138.152C59.4599 138.152 58.9239 138.112 58.4012 138.032C57.8786 137.957 57.3879 137.851 56.9292 137.712V135.768C57.3772 135.896 57.8652 136 58.3932 136.08C58.9212 136.155 59.4252 136.192 59.9052 136.192C60.7532 136.192 61.3692 136.051 61.7532 135.768C62.1372 135.485 62.3292 135.072 62.3292 134.528C62.3292 134.16 62.2306 133.853 62.0332 133.608C61.8359 133.363 61.4812 133.171 60.9692 133.032C60.4626 132.888 59.7399 132.787 58.8012 132.728L57.2972 132.648L57.7052 126.16H64.3052V128.16H58.9612L60.0972 127.04L59.7852 131.656L58.2652 130.736L59.7612 130.824C60.9612 130.888 61.9292 131.064 62.6652 131.352C63.4012 131.64 63.9372 132.043 64.2732 132.56C64.6146 133.077 64.7852 133.712 64.7852 134.464C64.7852 135.664 64.3826 136.579 63.5772 137.208C62.7719 137.837 61.5826 138.152 60.0092 138.152ZM73.3421 138L69.2141 131.968L73.0941 126.16H75.8301L71.7581 132.256L71.7981 131.584L76.1741 138H73.3421ZM66.2301 138V126.16H68.8301V138H66.2301ZM68.4701 133.088V130.8H70.2381V133.088H68.4701Z" fill="#905BC4"/>
<path d="M167.95 133V126.195L168.245 126.385L166.125 127.905V127.105L168.245 125.575H168.76V133H167.95ZM171.602 133V126.195L171.897 126.385L169.777 127.905V127.105L171.897 125.575H172.412V133H171.602ZM176.591 133V125.6H177.426L181.681 132.07H181.481V125.6H182.246V133H181.411L177.161 126.53H177.361V133H176.591ZM185.87 133.095C185.403 133.095 184.997 132.998 184.65 132.805C184.303 132.608 184.035 132.305 183.845 131.895C183.655 131.482 183.56 130.947 183.56 130.29C183.56 129.64 183.653 129.108 183.84 128.695C184.03 128.282 184.298 127.978 184.645 127.785C184.992 127.588 185.4 127.49 185.87 127.49C186.34 127.49 186.748 127.588 187.095 127.785C187.442 127.978 187.708 128.282 187.895 128.695C188.085 129.105 188.18 129.637 188.18 130.29C188.18 130.94 188.083 131.472 187.89 131.885C187.7 132.298 187.432 132.603 187.085 132.8C186.742 132.997 186.337 133.095 185.87 133.095ZM185.87 132.445C186.177 132.445 186.442 132.378 186.665 132.245C186.888 132.112 187.06 131.89 187.18 131.58C187.303 131.267 187.365 130.842 187.365 130.305C187.365 129.758 187.303 129.328 187.18 129.015C187.06 128.698 186.887 128.475 186.66 128.345C186.437 128.212 186.173 128.145 185.87 128.145C185.563 128.145 185.298 128.212 185.075 128.345C184.852 128.475 184.678 128.697 184.555 129.01C184.435 129.32 184.375 129.743 184.375 130.28C184.375 130.823 184.435 131.253 184.555 131.57C184.678 131.883 184.852 132.108 185.075 132.245C185.298 132.378 185.563 132.445 185.87 132.445ZM190.659 133L188.604 127.575H189.459L191.244 132.425H191.144L192.934 127.575H193.739L191.684 133H190.659ZM194.25 134.575C194.367 134.265 194.458 133.975 194.525 133.705C194.592 133.435 194.625 133.163 194.625 132.89L194.765 133.065H194.655C194.482 133.065 194.342 133.013 194.235 132.91C194.132 132.807 194.08 132.672 194.08 132.505C194.08 132.335 194.13 132.202 194.23 132.105C194.33 132.005 194.467 131.955 194.64 131.955C194.823 131.955 194.967 132.015 195.07 132.135C195.173 132.252 195.225 132.433 195.225 132.68C195.225 133.027 195.178 133.362 195.085 133.685C194.992 134.012 194.872 134.308 194.725 134.575H194.25ZM198.546 133V132.555L200.666 129.735C200.906 129.415 201.098 129.13 201.241 128.88C201.388 128.627 201.493 128.393 201.556 128.18C201.619 127.967 201.651 127.755 201.651 127.545C201.651 127.065 201.519 126.72 201.256 126.51C200.993 126.3 200.596 126.195 200.066 126.195C199.776 126.195 199.496 126.22 199.226 126.27C198.959 126.32 198.704 126.393 198.461 126.49V125.79C198.604 125.733 198.766 125.683 198.946 125.64C199.129 125.597 199.323 125.563 199.526 125.54C199.729 125.517 199.931 125.505 200.131 125.505C200.878 125.505 201.453 125.663 201.856 125.98C202.259 126.293 202.461 126.793 202.461 127.48C202.461 127.743 202.424 128.003 202.351 128.26C202.281 128.513 202.164 128.785 202.001 129.075C201.838 129.362 201.616 129.687 201.336 130.05L199.456 132.53L199.391 132.305H202.861V133H198.546ZM206.239 133.095C205.722 133.095 205.272 132.97 204.889 132.72C204.509 132.47 204.214 132.067 204.004 131.51C203.797 130.953 203.694 130.217 203.694 129.3C203.694 128.383 203.797 127.647 204.004 127.09C204.211 126.533 204.504 126.13 204.884 125.88C205.264 125.63 205.716 125.505 206.239 125.505C206.766 125.505 207.219 125.63 207.599 125.88C207.979 126.13 208.272 126.533 208.479 127.09C208.686 127.647 208.789 128.383 208.789 129.3C208.789 130.217 208.684 130.953 208.474 131.51C208.267 132.067 207.972 132.47 207.589 132.72C207.209 132.97 206.759 133.095 206.239 133.095ZM206.244 132.395C206.594 132.395 206.899 132.303 207.159 132.12C207.419 131.937 207.619 131.622 207.759 131.175C207.902 130.725 207.974 130.105 207.974 129.315C207.974 128.515 207.902 127.89 207.759 127.44C207.619 126.987 207.419 126.668 207.159 126.485C206.899 126.298 206.594 126.205 206.244 126.205C205.891 126.205 205.584 126.297 205.324 126.48C205.064 126.663 204.862 126.98 204.719 127.43C204.579 127.877 204.509 128.495 204.509 129.285C204.509 130.085 204.579 130.712 204.719 131.165C204.862 131.615 205.064 131.933 205.324 132.12C205.584 132.303 205.891 132.395 206.244 132.395ZM211.173 133V126.195L211.468 126.385L209.348 127.905V127.105L211.468 125.575H211.983V133H211.173ZM213.725 133L216.49 126.04L216.725 126.295H212.935V125.6H217.28V126.045L214.57 133H213.725Z" fill="#BDBDBD"/>
</g>
<defs>
<filter id="filter0_d_10_974" x="-21.3709" y="-16.8" width="282.356" height="199.6" filterUnits="userSpaceOnUse" color-interpolation-filters="sRGB">
<feFlood flood-opacity="0" result="BackgroundImageFix"/>
<feColorMatrix in="SourceAlpha" type="matrix" values="0 0 0 0 0 0 0 0 0 0 0 0 0 0 0 0 0 0 127 0" result="hardAlpha"/>
<feOffset dy="4"/>
<feGaussianBlur stdDeviation="10.4"/>
<feComposite in2="hardAlpha" operator="out"/>
<feColorMatrix type="matrix" values="0 0 0 0 0 0 0 0 0 0 0 0 0 0 0 0 0 0 0.25 0"/>
<feBlend mode="normal" in2="BackgroundImageFix" result="effect1_dropShadow_10_974"/>
<feBlend mode="normal" in="SourceGraphic" in2="effect1_dropShadow_10_974" result="shape"/>
</filter>
<filter id="filter1_d_10_974" x="-6.57092" y="60.0865" width="248.756" height="61.5301" filterUnits="userSpaceOnUse" color-interpolation-filters="sRGB">
<feFlood flood-opacity="0" result="BackgroundImageFix"/>
<feColorMatrix in="SourceAlpha" type="matrix" values="0 0 0 0 0 0 0 0 0 0 0 0 0 0 0 0 0 0 127 0" result="hardAlpha"/>
<feOffset dx="-2" dy="8"/>
<feGaussianBlur stdDeviation="2"/>
<feComposite in2="hardAlpha" operator="out"/>
<feColorMatrix type="matrix" values="0 0 0 0 0 0 0 0 0 0 0 0 0 0 0 0 0 0 0.25 0"/>
<feBlend mode="normal" in2="BackgroundImageFix" result="effect1_dropShadow_10_974"/>
<feBlend mode="normal" in="SourceGraphic" in2="effect1_dropShadow_10_974" result="shape"/>
</filter>
</defs>
</svg>
