<svg width="180" height="20" viewBox="0 0 180 20" fill="none" xmlns="http://www.w3.org/2000/svg">
<path d="M6.71332 13.992C8.16775 13.992 9.03168 12.8546 9.03168 10.9286C9.03168 10.2034 8.89298 9.59306 8.62746 9.12146C8.24304 8.38831 7.58122 7.992 6.74502 7.992C5.50064 7.992 4.62085 8.8282 4.62085 10.0013C4.62085 11.103 5.41345 11.9035 6.50328 11.9035C7.17303 11.9035 7.71596 11.5904 7.98545 11.0475H7.99734C7.99734 11.0475 8.01319 11.0475 8.01715 11.0475C8.02508 11.0475 8.05282 11.0475 8.05282 11.0475C8.05282 12.3553 7.55744 13.136 6.72125 13.136C6.22983 13.136 5.84938 12.8665 5.7186 12.4345H4.70011C4.87052 13.3738 5.66708 13.992 6.71332 13.992ZM6.74899 11.0911C6.09113 11.0911 5.62349 10.6234 5.62349 9.96955C5.62349 9.3315 6.11491 8.84405 6.75295 8.84405C7.391 8.84405 7.88241 9.33943 7.88241 9.9854C7.88241 10.6234 7.40288 11.0911 6.74899 11.0911Z" fill="white"/>
<path d="M10.7042 13.9365C11.0807 13.9365 11.3383 13.667 11.3383 13.3104C11.3383 12.9497 11.0807 12.6842 10.7042 12.6842C10.3317 12.6842 10.0701 12.9497 10.0701 13.3104C10.0701 13.667 10.3317 13.9365 10.7042 13.9365ZM10.7042 10.9643C11.0807 10.9643 11.3383 10.6987 11.3383 10.3421C11.3383 9.98144 11.0807 9.71591 10.7042 9.71591C10.3317 9.71591 10.0701 9.98144 10.0701 10.3421C10.0701 10.6987 10.3317 10.9643 10.7042 10.9643Z" fill="white"/>
<path d="M15.0479 13.8533H16.0267V12.7872H16.7995V11.9233H16.0267V8.13467H14.5842C13.5736 9.65647 12.7691 10.9286 12.2539 11.8758V12.7872H15.0479V13.8533ZM13.2011 11.8876C13.8669 10.7146 14.4613 9.77536 15.0082 8.96691H15.0637V11.9471H13.2011V11.8876Z" fill="white"/>
<path d="M18.9793 13.8533H20.0018V8.13467H18.9833L17.4892 9.18091V10.1637L18.9119 9.16506H18.9793V13.8533Z" fill="white"/>
<path opacity="0.35" d="M167.134 9.06149C167.134 8.13706 167.884 7.38767 168.808 7.38767H176.332C177.257 7.38767 178.006 8.13706 178.006 9.06149V10.9399C178.006 11.8643 177.257 12.6137 176.332 12.6137H168.808C167.884 12.6137 167.134 11.8643 167.134 10.9399V9.06149Z" fill="white" stroke="white" stroke-width="0.772531"/>
<path opacity="0.4" d="M178.922 8.94214V11.0593C179.348 10.88 179.625 10.4628 179.625 10.0007C179.625 9.53857 179.348 9.12145 178.922 8.94214Z" fill="white"/>
<path d="M167.807 9.09004C167.807 8.52116 168.268 8.06 168.837 8.06H176.304C176.873 8.06 177.334 8.52116 177.334 9.09004V10.9114C177.334 11.4803 176.873 11.9414 176.304 11.9414H168.837C168.268 11.9414 167.807 11.4803 167.807 10.9114V9.09004Z" fill="white"/>
<path fill-rule="evenodd" clip-rule="evenodd" d="M160.042 8.20536C161.215 8.20541 162.343 8.65606 163.193 9.46418C163.257 9.52657 163.359 9.52578 163.422 9.46241L164.034 8.84491C164.066 8.81277 164.084 8.76924 164.083 8.72394C164.083 8.67864 164.065 8.63532 164.033 8.60356C161.802 6.46548 158.282 6.46548 156.051 8.60356C156.019 8.6353 156 8.67861 156 8.7239C156 8.7692 156.017 8.81275 156.049 8.84491L156.661 9.46241C156.724 9.52587 156.827 9.52666 156.891 9.46418C157.741 8.65601 158.869 8.20535 160.042 8.20536ZM160.042 10.2144C160.686 10.2143 161.308 10.4539 161.785 10.8864C161.85 10.9478 161.952 10.9465 162.015 10.8834L162.626 10.2659C162.658 10.2335 162.676 10.1896 162.675 10.1439C162.675 10.0983 162.656 10.0547 162.623 10.023C161.169 8.6699 158.916 8.6699 157.462 10.023C157.429 10.0547 157.41 10.0983 157.41 10.1439C157.409 10.1896 157.427 10.2336 157.459 10.2659L158.07 10.8834C158.133 10.9465 158.235 10.9478 158.3 10.8864C158.777 10.4541 159.398 10.2146 160.042 10.2144ZM161.266 11.5661C161.267 11.6119 161.249 11.656 161.216 11.6881L160.159 12.755C160.128 12.7863 160.086 12.804 160.042 12.804C159.998 12.804 159.955 12.7863 159.924 12.755L158.867 11.6881C158.834 11.656 158.817 11.6118 158.817 11.566C158.818 11.5203 158.838 11.4769 158.872 11.4462C159.547 10.8752 160.536 10.8752 161.211 11.4462C161.245 11.4769 161.265 11.5203 161.266 11.5661Z" fill="white"/>
<path d="M139 0H42V0.948389C42 11.1389 50.2611 19.4 60.4516 19.4H120.548C130.739 19.4 139 11.1389 139 0.948388V0Z" fill="#241C4C"/>
<g opacity="0.15">
<path d="M72.9188 2.42499C71.9143 2.42499 71.1001 3.23927 71.1001 4.24374C71.1001 5.24821 71.9143 6.06249 72.9188 6.06249H98.3813C99.3858 6.06249 100.2 5.24821 100.2 4.24374C100.2 3.23927 99.3858 2.42499 98.3813 2.42499H72.9188Z" fill="white"/>
<path d="M108.081 2.42499C107.077 2.42499 106.263 3.23927 106.263 4.24374C106.263 5.24821 107.077 6.06249 108.081 6.06249C109.086 6.06249 109.9 5.24821 109.9 4.24374C109.9 3.23927 109.086 2.42499 108.081 2.42499Z" fill="white"/>
</g>
</svg>
